<mxfile host="app.diagrams.net" agent="Mozilla/5.0 (Windows NT 10.0; Win64; x64) AppleWebKit/537.36 (KHTML, like Gecko) Chrome/141.0.0.0 Safari/537.36" version="28.2.8">
  <diagram name="Page-1" id="NVSTMqfQOPhMeJkK-jS_">
    <mxGraphModel dx="983" dy="512" grid="1" gridSize="10" guides="1" tooltips="1" connect="1" arrows="1" fold="1" page="1" pageScale="1" pageWidth="850" pageHeight="1100" math="0" shadow="0">
      <root>
        <mxCell id="0" />
        <mxCell id="1" parent="0" />
        <mxCell id="x9XIAskeLC42xpHvOHnx-29" value="" style="rounded=0;whiteSpace=wrap;html=1;fillColor=light-dark(#EEEEEE,#FFFFFF);strokeColor=none;fontFamily=Courier New;fontColor=none;noLabel=1;fillStyle=solid;" vertex="1" parent="1">
          <mxGeometry width="610" height="470" as="geometry" />
        </mxCell>
        <mxCell id="x9XIAskeLC42xpHvOHnx-23" style="edgeStyle=orthogonalEdgeStyle;rounded=0;orthogonalLoop=1;jettySize=auto;html=1;entryX=0;entryY=0.5;entryDx=0;entryDy=0;dashed=1;flowAnimation=1;strokeColor=light-dark(#000000,#000000);exitX=0;exitY=0.5;exitDx=0;exitDy=0;" edge="1" parent="1" source="x9XIAskeLC42xpHvOHnx-52" target="x9XIAskeLC42xpHvOHnx-18">
          <mxGeometry relative="1" as="geometry">
            <mxPoint x="402" y="234.0344827586207" as="sourcePoint" />
            <Array as="points">
              <mxPoint x="70" y="229" />
              <mxPoint x="70" y="367" />
            </Array>
          </mxGeometry>
        </mxCell>
        <mxCell id="x9XIAskeLC42xpHvOHnx-10" style="edgeStyle=orthogonalEdgeStyle;rounded=0;orthogonalLoop=1;jettySize=auto;html=1;entryX=0;entryY=0.5;entryDx=0;entryDy=0;dashed=1;flowAnimation=1;strokeColor=light-dark(#000000,#000000);exitX=1;exitY=0.5;exitDx=0;exitDy=0;" edge="1" parent="1" source="x9XIAskeLC42xpHvOHnx-39" target="x9XIAskeLC42xpHvOHnx-8">
          <mxGeometry relative="1" as="geometry">
            <mxPoint x="220" y="145" as="sourcePoint" />
          </mxGeometry>
        </mxCell>
        <mxCell id="x9XIAskeLC42xpHvOHnx-5" style="edgeStyle=orthogonalEdgeStyle;rounded=0;orthogonalLoop=1;jettySize=auto;html=1;dashed=1;flowAnimation=1;strokeColor=light-dark(#000000,#000000);" edge="1" parent="1" source="x9XIAskeLC42xpHvOHnx-59" target="x9XIAskeLC42xpHvOHnx-39">
          <mxGeometry relative="1" as="geometry">
            <mxPoint x="76" y="149" as="sourcePoint" />
            <mxPoint x="170" y="145" as="targetPoint" />
          </mxGeometry>
        </mxCell>
        <mxCell id="x9XIAskeLC42xpHvOHnx-8" value="" style="rounded=0;whiteSpace=wrap;html=1;fillColor=#eeeeee;strokeColor=#36393d;" vertex="1" parent="1">
          <mxGeometry x="198.1" y="100" width="270" height="100" as="geometry" />
        </mxCell>
        <mxCell id="x9XIAskeLC42xpHvOHnx-9" value="Continuous Integration" style="rounded=0;whiteSpace=wrap;html=1;fillColor=#eeeeee;strokeColor=#36393d;fontFamily=Courier New;" vertex="1" parent="1">
          <mxGeometry x="198.1" y="65" width="270" height="35" as="geometry" />
        </mxCell>
        <mxCell id="x9XIAskeLC42xpHvOHnx-18" value="" style="rounded=0;whiteSpace=wrap;html=1;fillColor=#eeeeee;strokeColor=#36393d;" vertex="1" parent="1">
          <mxGeometry x="109.1" y="312" width="320.9" height="110" as="geometry" />
        </mxCell>
        <mxCell id="x9XIAskeLC42xpHvOHnx-19" value="Continuous Delivery" style="rounded=0;whiteSpace=wrap;html=1;fillColor=#eeeeee;strokeColor=#36393d;fontFamily=Courier New;" vertex="1" parent="1">
          <mxGeometry x="109.1" y="277" width="320.9" height="35" as="geometry" />
        </mxCell>
        <mxCell id="x9XIAskeLC42xpHvOHnx-33" value="Publish" style="shape=image;imageAspect=0;aspect=fixed;verticalLabelPosition=bottom;verticalAlign=top;image=data:image/png,iVBORw0KGgoAAAANSUhEUgAAACQAAAAkCAYAAADhAJiYAAAEXklEQVR4AdRXPXATRxR+u+CJ6UjpBvmq2FVMlaRLOsqkyETnyqkgHXQe5ExEsJShcjpIZVdIGRo6yqQkVUhld2eRInTQQUb2Ld93unfa+/HpDijg5p7e7vv9tD/3dq28Z8+HD2irHy2Hu5NfFg1sdzD5ibaL7Ir61iP0/5L9T4xsh4OJC4fHj4oBw8HxKITOiPRh+7yoX9RvBah7O/oSAS+CZq8zV5gcdAiKQE7EdGX+LIe3oyvz7uJWK0DG2j80pHPyTNvga6BVkL5H2hBrS6OY6SoajQGFw3+zdeOmcTDe6ayMeh3jxBxoXCNyjzLQuovjr1SO9bSv7UW8FlA4jNY2B5O7yVS4eDsN9mTcD47Ttox7l74HAEO63+v8kMl/DP5EOxkpAN1CjJfhcLLHmJCf+ZYAwekqnB1JnD10Itd8byS+7Pfr2rBd9/TL4uQ6YzJ2QsPJVSk8JUAnLv6rYMPuEXbWNSTAn2W3OX00jS/QFx5HoNxblasE6EEveKJeXCsEAVof3ez8pvI2/KAfvKJvEgNr7mQar6i/n0tlJUCqIDfnZEPe8YOYn9eFrAdk7Sd1zm+is9Z+WudXC8iJq/03dYGxOfawcP8u2hgxtaNeAtTdjbxdZfjBK8Zc2N8cPN1PdpTIBkBFeQeXfUDD3eh6XieSA7Q5iDaMsXfViAtR2005wWBkt9QeMQJtk6M//2wYu8eclCtlgL7uRxed2GyI4WjUyOdMiOkofT9oQ10BTGUMPzZzMjf9SRmgC0s2q8wvp/HHVBYpS+jk3nc/R34RlUyXOvlJU1GOJd+nVOLnTgBt4YyT6mpZPD29pQb2nB1pJW8LhjFeiCyTFykBxI+XPyo+Yt+BNcz/sLGSh8Onj5pMkx+HbT+HnzsBRIOH/eCFX6GxOxzlRXrQD57lQDmXnXcWTZPG8mMbiS8zt+oyQBSMUaGBQqu6wPGQ8iKVQMGgBZh5TBffuO+VKoTJb3sKxr3OHfIZmVJBnMlFfFBNwcx8TVYrRzvBrzPZ/Dc3QnPxrIW1kTnPJPlfgmoHRsSIq41ZCyiO43/knT/zEaoKXQvIncrjKqe3kU2np7V/sgToW5QPTXgeVx4sbJ4eo+4gysqB6pty1izEeQ5yjKl+fi6VlQCdN/YzVXp81YjdZ0Bp+SQ+qFlwm1+f0OFblasEKD3dJYf22MVfODEHdFZCgvm2VeEZvGzrHp7gu8ONkFDFKbQEyI/9+07weJzeKsQY3aJrWjJoyysOEnNaHW8olJG6/YjHjPT44sYJgN7qN1XHVtor1QJSI/LRzUs3yBPC5Q8gkpuqEcnWlsMNBXKCi8ySjSR9Rr3VMG0uZI0BMRKnkDwljkDalGMRIUn6ZDq/HKW6WtYKEKcQ0VCo8Zu8OhWdAFNCwoC5caKa/bxiOZo1m/22AsSQOMesYGr6AICFX54KTg91QLYN28pzFeOcRa0B8agy7nVunRVQ5bhW36Gt9pvy1oCaBn5Tu9cAAAD//zc1LnwAAAAGSURBVAMAQD7cWEu+qBwAAAAASUVORK5CYII=;base64,iVBORw0KGgoAAAANSUhEUgAAACQAAAAkCAYAAADhAJiYAAACdklEQVR4AexXPW8TQRCdPcmK3UFHhXMdLSUd6aCj9FGFCvgHgBPpUOSIdHSkI1VsREFKOlJS0lFeLArKpHPA0W7eu2gln53dvY9YSuHTPc/u7Myb51mf7y6SW3asBIU2pHGHeoNsMxmMDTDhOFQwtF5LULKbPYCADDBKos9ydbQVxvQBWS/N1qXGUUlQMjgZJuiGmOg3avkKrqtWlAt+Phh/QmzpMyiI20ARhIjqycxhlDpem+rOsN9VM+7C0Ii8Yi5QakujQvbMBAT5N1TYBike59roRxQxend/4yCNz4vLzllhS11RTkFIKGwJvmlKEUDny1b8E+tNzgL3LJFPUB5nhYz63fe5Y8kfQUFLrr9AvxK00JI5x6pDcw1ZmK46tNCSOUewQwi4N5ez1Cnq+fnxx2jvRXzEcAL/4CoEVDoBvKdP0Jk3s96i85Zh6ZyC0JmPNujGrZIPLk6noPZU77mS6viTnT9PbN7af+28LzoFVXissHX8NtLfbICP2ymIydi2lLYpnqXZHXC0ARHj3i6uewXd1CNHpxX9ZTFiuNV9S+uCVxCTmnYp2R2/BE/enTJcQUFNupS/eRjZh6D8LMMVFEQmPsjTVgF/N3zzsDllOcoIEl4VF6IfWvKQ7e1kj/G7ObVxCrnksHOfLSWIBF/78S/R+inHLmymWRtvK6cqin7YGKP1xiFzrSNgSwsiz3A7/j6Z6rsczwNCzL9WNIGflziMCGNH2/FxPin5UUkQOY/S+Iw3UVwxB5xfByWyz5gjxF637vNVFmTJcMW8YFEUf2N9HNN32O++tr6qtrYgWwjF9yiC4Nj669rGguoWduXdOkGXAAAA//+cdJIBAAAABklEQVQDAM/z7kngM3/hAAAAAElFTkSuQmCC;base64,iVBORw0KGgoAAAANSUhEUgAAACQAAAAkCAYAAADhAJiYAAABzklEQVR4AexXS07DMBCdWKrEkhuU3ARuwDJdASfgABEiCFWcgRWwIogNN4CbhO5YskJIkRz83KSKK3+Kp6SoqqXnSWYyb14nThML+mfDEJRNZ5cucHW7eOHvcxuCEqLCBWIOFy/8fWpDUD+wqWOroEZ16jEfJ31wBfa5cIwaNk6rINuFQ/mCgrJpdTqZzpp1AFyhH+YVdFxU+wmJO1rTSBRXdlMdkGcYghopjwCq5QNy9kbiHBbAPecAHBpSnGiraqAWoM/byRBUXqRvGkX63sYXpszHVxwsiNqDUtXQtVTN1qWNIUh7Njxtj6DQUxfb6O3pUGwHQnnRHcLfvw+hwq54tCAXIdcfLWi3qEOt960fxEL5rnj0LXMRcv3RgnZriNv62PzoW4aF68PggmILhvKiOxQijo0bgrLr6lCjmH/3quB3R4wdJgcdT8eZqRq6lqrZxWBVHGaORIhXgEZCf/fW6ruXiHQQO0wONImavmp5qwyhBmoB+rydRGut5rlIPxqSZ9ZghFOSnLwU6acv1SsIiWWe3vuept/EnvK0BKcPQUG+5L+IWQVhrSy/GrjFl/lQw8ZpFWS7cCifIci3M+UKWpXbEOTbmXIFrcr9AwAA///7sgeoAAAABklEQVQDADdVz1iYO1VqAAAAAElFTkSuQmCC;base64,iVBORw0KGgoAAAANSUhEUgAAACQAAAAkCAYAAADhAJiYAAAC10lEQVR4AexXMXDTMBT9Uhou3WCCqYk3RkY2YGKlA0cyUSbYoBPXuj3CkXAwlY1jY6qTrYxMdISRjc3NBCMbpVwk/pfzHcW2jNzDuR6HTl//6UtPepEtS5FwxtJ/QX96IGd/hbrP4uvd4eTJUgznyq5YfoWkvCYA+sswwLkgk/KCMh2WXS0VFIVtUYeV/chSQWXEutpygoRSn3my3nCi6zAeX4L4yJi9ZMA+2g0OGNft98O199k5coKoA703Woquxt1GRrGZHVG9iiHvC5rJzAOl1mkOE8wUhYKoz2hrbTwK20/JsP4djXKH6lUMSZfRQGv4xryyp+AURIOwaVCbjKt+MJknpLrBuMx7CRqFwVsepOoHk3nRdpA+Oo4VeS9BRNTK7xdS36z9+KUuZGOuureg0W5wSC/iaeygH/A76NKRxr0FpYyawb8naKMft/7monmvEB8hdF+yBZw0G3umbTD5ascJmzgeP1kOtbnMS1BvED/iAejlZkxeg36QeCrn1h3GG1zLcjhe5L0EgZAPi8gLsYZIRZu4aNw1vmLhJwigA5Q0uLfvz+knsJJQ+opV9Ya+ghIhAs6DI4lz8uZCk4CEA9WSlyAB8IKHvdWPi0VpeAV2Uio9/27340t2Uxn2ErQftl/yIKtNGTMmr0HdI4/WujOIr6I32T7RVzIc08FReAkirsa7EXm0hRWyD14p5Adsn2eteJVazpWd9zbIR5DpSHcZA7DoPZ/cR5dmS+zCRzLaCdLHuLoiH6eEEuAtKDOGuXRxbArqHWOnFyLZqc4OScOpBAm8/SX0pGxC42KC3CWu4rG7dd7iLcjeKUqq8XwIAA063YV23MZaT9/YdRf2FrTSFK95kNFWcMR45s1HUAtxOKsbh+/angFYjHeC3F8eDOeyt6Ao7Jh/CkU3R760HZ9M1+0Zou32JrUVcex+NvYWxKSyg9J1Myzj8LjsKwtiYl3+NwAAAP//RL0KBQAAAAZJREFUAwCiLLdYrmPk3QAAAABJRU5ErkJggg==;base64,iVBORw0KGgoAAAANSUhEUgAAACQAAAAkCAYAAADhAJiYAAADs0lEQVR4AeyXPVQTQRCAZ+/BM3bYaeFLrtNOO+0ssaTgkbNRO+2wExIf8UGiVlhiR8WFR0MnnaV02kkXgoV00EVeeDfObG4ut3eb3OVIQeG9m5vZ3dnZ7/b27xy4Ztd/oKwPMvUe8prdntc88Zc2Oo+yGreVp4C8jc4yBcVxYgsUyysBYNVRzncdo3WyGSvLNFNAmTUmdUAcvGCrcy9P1RRQAHCIAA0RBWorTyDx8WtlxXIJwUPJ0xqdX16rm9lbKaDdunvYrpXfsygV7CLgKx1wwsdezf3JYBAET6OqCMte6+RrlLYYKSDxedHolIDeStIBBo/FnkT779wDDSaVEOe9je4HSSb1SKCLWacnzoq6n3tO0kW0AaXg7WKjc9sWxwrkNY99cUYIXu5Q90v6KvpGP7gp9WdmnT9ix7UVCEBVgS5EOG3X3G0yp3JvN9y/gMEbCVZd7zwRW3QKyGsdR4OuXS/fEUetEc6BBfJfi83Og7i3X3c/S1o5TtSW5KWAANV8WHgU6kj59fItligjw+AVewacH8lVm5eUsCotoqEVKgMoPtDQCYbTNXSeRDEM0IrNdXjVZi1S6gefxPbWf0sH6CwDaHbWea5z6dFecY9JFbrjMBzAmGGUoccSab7pxZdYixhAGL6RFBbRWTDJmArAGNgGEI2fCoy5vGYXk+Mh7j4pjK6LMAexywRSkBpk4sswbPN4sEEVguGAiTZNIIBT9rFJfFFLQhWG0Q2hMZsNIPqeB9rH8uCBaIO6Ggw1pJTRpgHUh+ALuehbb67aGj5sUDK12Ss5mzjPJsbyooZtsq8BxEcGzmS5mHHWWCclCSXleWHYn/axaIVOLi8GEDuTnJMA0I4MI64k1CgYOmacsVjCDLYThcbnYr8U0GU/uM8FLHy+Zm0TgRoFo+somKMXm4PYRbP1TJL+aiW1G6SA9houz7Swl5xN21iSgAwldh4dvmAIiPu2OikgdqLZFO3y8YMalxWVZ7zrK2dT6vu1yoLYcW0F2qZzC9LBTBypm1HsIprPPUi7vtQd95mtQFyRD2a0LvEfByeBoTiwTkz4oHPPt6iKGo7RKC9mjARin51a+TV1TYNtFg5MYD3b1sHlWaJAbSE6S9Vmd43FFmcsEDfAv0NgvlWJtw4C47/bHvvkFaRfKgXQEKHGU7/blAeZl7/qHunvrpyPCeeRm3HCL3cyF5BE81fvrgzAeBzgvuSP0uw7VmLna4kxEZBUGvRYZYEbk7xp6UJA02rcFufaAf0DAAD//2E8jYMAAAAGSURBVAMA3xyDWKh3ivsAAAAASUVORK5CYII=;base64,iVBORw0KGgoAAAANSUhEUgAAACQAAAAkCAYAAADhAJiYAAADZElEQVR4AexXP3PTMBR/8pGjnWg3GCDVVj4C3wC2diJmaifKxsaRlDtzNL1usFEmMuH0GNoNvgFsjGVz0omtZUq5gMR7tp+jKI4tJx0yVGf5Pb2/P8v2k+TBgrVrQGUvZO4Z8tu9Y7/d10nvhWUJy/QzA/L3+08JBIDYgKyJBska7WgrE1VkKgNqBNEaJQUNh0auHvLUkQAI8D6izYBsoWKrBAiTRKLmRWYOPVQybNXjDkLdN3RLZIs+p4aslHUC5Ld7oY/fCUZbwx5fGtQ2AhHdQGYzEzblT5LhFO3ERsltnXyftPvvk2HxvRCQ/ybaoGAAogHchPhKSbst2WGRTcNm/QPZAOgT1mmAHYrV2Dt7zLI8mgtoI4hWyBk879hwuqAkYfPeI0NWyIattc2bQ7WMRhfY40sI3cXYA8oRC6xbLqDlmndu2qXfyaopc+U7gbzEB1m1vy87B8ebAOTvRc9ZyfRfDVZgzqYUTMSg0gFWmwCkhXfLsoEb4P2gad4KoiVbVzYmH/L1hPfNttUabtuyCUCmgdLqgTFe+lPzBv7+2RdDVsiSLfmg0ehBxksDqsavQkBHu/I7vn8BwjvI3LR+iE+si6oxvQqyAbRlP/zLAopFpYFlebQQEDuEzbsvKRiOs5ojkmqszWpMfAIEzCoe16Zuq/4aHJoTII6DoOTfobrDY6JcjRGIXcUvB0O1ij5m9SaXwl4JEEX6HMhfmEQoUD6N076ONKvioNQm2iyfBDKrP6h3uioD4qhHLdnFpAK/jQ7LBMAhycJX8oRlVenMgDgRfhvbzH9q1Z8xPyudG9Csiaf5XQOaNjMsX/wZElr9ZrSNdv8F81dFzcXbzMXxJ2Yo3JXvWIm/8QEWPO3vR1RnWDwTpRgUC5ehtxzAzMWyCUCkSDdVxCZde6cYbGyPlCjK7+lqfw4Yw7COq7gxzthcQJ1kU2VX43gX6eP+OvMuYdD2OF3tR3uhkiqeC4jzpNVYmNUYcH/t44bfabU3zmz4+p2qeCEgSBtV4/Q12qv92Nlrymrfo+XEtYo7ASJc6WuU9t6YVnvSUzd5Gqd7cUm8a3cGxAFpg0VPbJ29WB3TvDNbrHC4VQbEMcPR2avLMnA4s2W2U5iZAXE8PHv5NGNxr3BmY3+bzg3IDjjveOEA/QcAAP//MQ5L9wAAAAZJREFUAwCHrnRYO+nwsgAAAABJRU5ErkJggg==;base64,iVBORw0KGgoAAAANSUhEUgAAACQAAAAkCAYAAADhAJiYAAACn0lEQVR4AexXvXLTQBDeuxlmTAddaCyrgy4ldKGDB2CQUpkK2nSAzCAmlqFMCRV08kweALrQQUeZdBelgQ46wgR8fCvf2YplW7oEMzCjm13tam9/Pq/uzpKkf2w0gKoeyP/dobt9dT1IsqdOvK02qrpSnHfqkBTygyCKnVjKPXIYToAc8p7Z1QlQGnnCsq2oT0a+tbFu7dbG0trqSCdAdRKe16cBVNXBpkNNh6o6UDXfrKGVdChMsu828S+iY6sXZdGnaK/SnR8ZCu0jaQsMEsPd2P8CJadh7B9qojc0Hi34qrFa/+oEaDM5eo3UV8FMB2nUDlkp8jDy7uH+AMzUCZPDlJW6XBtQkKiuJt01iY/TyLtm9JIwc+ZRioBjS04LDLUAbSZqXZDk7hAPFLzIMkwyPY+7sWpZH/YTiA0HynaWlo1KQJxck/xkk6AQ3s+IGIi1zcofF2S+6K1vPq/lPufK9SWXSkA2Oef4eTK6whJgvrJcxkE/+8zzxXekYi6em8dLAaGwngSNRrd5R8HG3bo0sS9QhKC1cHC0xzuPEGvdED/NaY0FuRAQAqddELSTPvHfhf3sOWLXwfVI6w3+IOBY0vTCBiG3svqsnAuIfxkc8y5oEh/Tx95WwF8Pgh7C7kRYcHG4rW6lPe8RafHeBHdMDXM7FSVA+RbFLzMu34ZR+8adWK0Jx68HEz8WUr4NYtVJe+2bMIyPA9QIB9l93J+iEiCBLUpmYJdcJiLaxWkMffKCfxY9X0vIi1g+MgwoegnTKSoBwuzYGQqe9dxz5rx2pDZ/PTSpBVtOJUDYpgtP4DziD15wjPiz6UqAuLVoqyBBDzS+UlfBpEdbXIOXQiUg64Cd9WoYec9WwWnP37F1ZmWpQ7MOf/u+AVTV8d8AAAD//0yHGzoAAAAGSURBVAMAXZGZWLbnhkMAAAAASUVORK5CYII=;base64,iVBORw0KGgoAAAANSUhEUgAAACQAAAAkCAYAAADhAJiYAAAEVklEQVR4AexXPZTUNhCeUe7e2+ugSip23ZGOdNBBR8kVvKxThY50dIHz8e543AKpKBO6VNhJc9tRQirShS503qNJGbq793hn8Y0seeUf2bv3KCjw02ik0WjmszUaWYo+s+cLoKEFOdMXih/lF+PZIo1nR7qbFofTx/lkyHnX+FqA4oP8jgAgrf4l4ikFH77BhcpFNz44ehxU6xhYCdD3B/llMU6snjZsnGitXzHRb0Ka9N8YPwEtC9NdmTt9mF9dCsOtQUDx7N2hYvXaM3GiPxRRmowZtJXtTq49T8Y/CWXJ5IrIQKxVEWHOe5AprNTL+NG7F6bTU/UCwpv9Q6RvuPkWyFa2Hy2cLMSze9ECwM4TF99WOlpfL21WklYjCMi+zSU74wTGeRUgVr9i6U70VuZC4JbykrUNUbt0ApKYIbyNVRcwW7Z9ZgZQYqMEBduhmOoE5MeMNVQDMp0d7eHTuy1/HD/Mq2WtKTY6vi2Jqcaw6bYAiTMzgkpiBmyojEipQwDMhxRl3Aa7NMn3ZQSoWoCwffchl/I+FDNZMn6giZwe2WcCUNgEthdgEuwYMrvP8wVRWWqAbu7n35Ri7C1VfOfawhGIT/FGP0tbKADKbQJRCRK+UmX75iyvzakB2tj8qkp89k2WRrW+gzd64oM6/VA8WyqUreks/7FshWvf9gbxnq9ZA0Sk3XFQ7gZf07YtqD05zzY21X9WXDFF6uuq09+wPri2IRqASgua9Juy1V2zxI85z9rjp7r4qy1tS0I+OgEp4hYgTcWtttm2RGk6Rys8XT5kmpJqFcqS6Hfomd0BHi5KvUBeuh5W6B/pBFSQrkW+M4HEdh7twXMMeWkQVMhHJyDWfBGOOwtAmZP+tCi2iem2OTwZ7ab2wJdi4s6XbgDSmbHLNBgHf96P5unO+Jk5PHeiOYBtU/PpBzUSdU0soSBNQzVAWul7RoqqmbAg6i0AtjIoPwGTOn3gG64Bqics5f+U+XOC7T5Q/iTkL/wClxLfp0hqgETARHeFg0aS/MDXKl2gEHcwW5qZ7ufy829CQi99lYOoW4DwK/oL5GUJJL9yMFx7oORfqgIjM3hT5cKFcB4ufYkA1AIEGRW6uCJcCCf4sfB1SUDhy2z583xbTEV1wPo6nYD+2I1we+C5VRz5hqxsbQYbWCEyO4uIs+dJ1DoNCE8nIMgpTS7INn5LRNIVUNquv/RXJolDC8bNeQPbses0eRCQKKbJGDcGm5sgkPWH8WNxgm5vER3RpVoc8hw2O5fKGesFJEppMomR9ABMeoZG4gTONG6l/09ni9c/zI5+FZoeLF5CfgzSogNtu0T4sSmKa2n51SEOl0FAMhUBaq4y3NymTOeY+DKC47YQM18lcnGClhRNT1JcKrP70SvpDtFKgJwRSQliXONWqhsp3+mUXM/lgiC66e64yv7lWH+9FiBnSrJrlly4ZRzi7dt8sh26IDgbIX4mQCFjn0L+2QH6CAAA//881shAAAAABklEQVQDAKeIwlgVhGzgAAAAAElFTkSuQmCC;base64,iVBORw0KGgoAAAANSUhEUgAAACQAAAAkCAYAAADhAJiYAAABOUlEQVR4AeyUTW7CMBCFx7lAb9A0N2p3ya69QfeuVFWq971B2YUd3CjADbgAZgxYtmbEZIOHIMXyi/wXv8/jkSuYWJmBxi5kjtDjR6h12+/Obb2GgheNmJhDHg4fUfTHUn0RaGmbRVQpALqvCEQXa/RFoDyPNGCCBwMy/rDHiY2GLl5olSoD6r+av97WjYrQK6GcWwzoPHy/7/SBwmOVJ3PJdvCidzESIbMGiAKVIgL19vktSoUGTUQgnFevIlDndqsoLTIRCMC/JukgMaClrX96WxsNBS96TAZEF2j3pw/U/Q6f+BgOKkIvegMsQt5UT7joRUMXL7RKlQGlKYA8sfPxkm0RqKTxtb1FoNYN760bTrq2wa3HRSAD1X8UKBUGFB6rPHdKtoMXPScDogu0+zPQWMTnCI1F6AgAAP//e2jpTgAAAAZJREFUAwB4vKVYYm11AwAAAABJRU5ErkJggg==;base64,iVBORw0KGgoAAAANSUhEUgAAACQAAAAkCAYAAADhAJiYAAACF0lEQVR4AexVvU7DMBA+R0LAxhNQssHWbrDBG7DRMMEEbLA2SBSJdIUNmGBLJR4CNtjo1m5R+xKAQDnuIrskLY7rIEQlYuVy5+/+Pl3ixIEpWyUh0wMpJ1ROyDQBk798h/7fhLxWtOy1+nveWXS4dRatmiZg8hd+h+rB4NEL+gjodAHhCoRz7ggnwQh/NjXW+QsRooYoAPOmUeUYXdM83JrQSKNe6FeEktn3eJ6a9UiSayQ2wUw3K0Jea3CvCiLEu0RkRe1Z3zbdV8YQ4wPes6RzeG8SK0KAuC4L9tq+eyvtMdU+dq8I7JBAKifZmm4ZQvWgf6KT7WBwqYrRo6kpW6cpZk356BSe6+oyruJYZwgJgKZOEHAf5OJHI02tysQgHOrqMg6plSGUwv/MzBBCmpBOQMAFyLXZjBakOZmiXF1dxtNFMoTafuVUJ2GjcqQS52ec4WlT2KimIz/8OHKuri7j6dwMobTjW1uIB4lX+Vch7TFVD6IdAqskAF85MMmyIhQ2FjeGRelXQVPo7jSjOYWxTVgkwLkBuTI5EstTVoS4EB1n/hqzybL8NuO8EAlkYZvAJZLkoo+kSAyLmzUhPs7cCEE85fTpcEyOX+uyJqQqtf3FNW76AXENBOwDxkdsM0ZSU3G2ujAh1ejOdztho3IdHrsXbCu8qP4xoaKNdXmTENLl/gpeEjKNtZxQOSHTBEz+qXuHPgEAAP//oXTHygAAAAZJREFUAwC+zvBJy0LxBAAAAABJRU5ErkJggg==;base64,iVBORw0KGgoAAAANSUhEUgAAACQAAAAkCAYAAADhAJiYAAACnklEQVR4AexWMWzTUBC9bxE1ZaIbDNTyBhOwMTLCVgYEZmIrIxtNXAkjNWmZWGGDBQcxkA02VjbKBFtIGGBrt5QG+fPuJ/drp5YtHIM6+Otf/vf9f+9e7s6XOHTCRk2oKCF1hOoIFUWg6LyuoYUidLczfOh3hrpCGTNmHqnMlPnd79tMQhPt5BmXOGsyJmPf6QwfZdkfI4TLn0jHG6nLSr0HUFhWSPEXU/0kpiIK4etLUsf7FCG/O3oH5WWImeNJvBIFroraqzd6gfu4rERttxUFqzcjYC1N4mUDPv24MPM5fcKnJXQrHJwlra9Dx3Ofjfuht88PVcqL0DtgbGBOseHT+IaCpyV0quH8YAULDFZ4XVT87nAdaTl6Kbqjp4KZ9AHfA9FbQqJAnaTrRw7+cjWp0PQsZab1A39r9EF0qCPx1RSdIXR7a3BVFKiTJ7JfaEUqMu2VvrYWDs4QxqvAtb6EgyHkOM4lnFc2OVV5YKcbzvr8uXAwhOYP//WzVmQiRBnDEIrj+HPGWWnV0mH8Ms94fBjbVMk94WAIvd70PspBUWuXe3krv9pEqk/ZY1faSbJbCwdDKGmHt6ySn4sIjRAd+n4SmzTtRIF7RXQK3Vr2slpC2ok9UaJ3jGW/yIoO/RwElJVNtyV48LEn+9+T+JzsLaFey/tGR2FuwmAsrydVOO6FA8ZGImhW2Kr3JvR+0mxYQvwccZiJvvIe0lxuOHsghk47esv5LitoA9vcKBnrV8NJRn8XPn34sjNFiLVR4F4EfemgrILoNc53WUHtbCR+J4GHqZxUPUFj5jFCrOVuDWIKBOaI8elCcsCYjB21z9t6SiJmEpIL3NqNMf42VLQuM6bgZ625hGYG/3WpCRWFu45QHaGiCBSdn7ga+gMAAP//n0CWswAAAAZJREFUAwCWIINYYxqBuAAAAABJRU5ErkJggg==;base64,iVBORw0KGgoAAAANSUhEUgAAACQAAAAkCAYAAADhAJiYAAAEYUlEQVR4AexXPXDcRBR+q8TDuXM6aO6sDjqoGDroXLrJzMlVUpF0cRcsz3BMcgYqp3M6XFnnobA7yrRQQWc6cW5MF3c+xqDl+3T7dLsnyTdzHkiK3OjpvX1/+2m1760ukrfs9w7Qohey9Aolw7G9iRZN3GZfGlBbwtvqbw3IihyCBiQRO3rjgCbXxfYo7X1Durq2j/8zQMnz/Emyl282TXB/mH+s+tNBfNkkI/ZD1fs8eZZvJnvjL32dL7e/MhPti41Oyo27N/5Wg/rPxxd3JfpVx63cRmeIfa32ZO98H2MrUXQiVl6qfp43AkLwq8DRylMmIxkj73u2S0+eilb+nArlfY0xJLH2SalxN8zxkxMDVgP0YJB3EPy58/oDnATmX3aUpT0DuudrKWe7vQ+gB26prYKdgv2dfphjo5yrHMxuNUB/rUTVMiNx7MiIMS8YZq8L6NYTyjfRUdp7TF/6GDEvkceMpmA/oo6EuS7IfQoAuc3aoYMVORTvl+10t8ukg7hhxTxHTxzBlzFHaTeoPi/32vzmDwD5m9WI9L3cjWJ/kK9jf1yBtGtfuYdq9Fclcm+qjMI5q2QIASA+DXQTEK8OJ+o/y3U/UVfR1nB8YFaiHIpyRcF5dfhQyfA842CettAumBP6NRCvSzcn5ZICQNTAYdVbUjFR9AoTnNCmxJWBzyMd17ntz78K5kDNz9qFkReYq1YUNUBMjq77UExRbT5UxLQyaARhZWaJMW680IcCvbVVjqvr4l6209sO7G7QCIi2bCeuEvxji1+o80iX3FPdLPo5Tr3uPh/VCmje8f8atwLiPlEQd+5En6rsuG58N2xkgY+f4/4g97t9ENwIaGt4/gP2CSuodDbWBAnQ8Gb7q/So3wpbfBForVnX8d2V6IJVqmOf1wChLF9bsQ/UyUjxCRrbQx2Ts+HhgPyOchMZMYfHu/HPvi1LuwlAfqY6K/KIc+lYeQAIDvAT3bCTDOfVURr/Jg0/nFlfuUoMXs3fDQ+g4QTJnBhrTHn4YlxdASAmqyxiT2dys8RKxASrIB60Jf3Y8gBhhlluvP7YtwWAXDKH3vT90xj76oArON/w/GTzsnbmPvZkaDN6LE3K1+8ZA0DUv4emRU7CaXzGD7IE/zCwr6adGQ2v7VuGMUr00c5ssCeZA5ST1Acru6qy8hqgw0E8sWJ0Q66b8INsGmftBhLzQK0+VaYGEejLwxbdfUN1HmelkVAT1RyeWaQGiNZR2q2qgWPjvmfwRAZj//NDCwDq6qoOW36QMYYEBEFVzs+h0Y2AaLQiTwspkiztGZR99T2D5LGrLrq1EguEH2TqwKpErLHW9MUWjecYfVsBjdLe98dp3Pg/i9XFYNLmIK9WyZddgdAloNFu9zjbjcuvz8DgBq2AnH0hW10xB/3h+GtSZyXaXxiwwOHWgERMHxtr4Kjq8LLk7zaAXL9qnPkmW2OAKpcGhA0adGiMy07teK2/6ISL+NKAFiVe1v7WAfoXAAD//3MufTIAAAAGSURBVAMAT9/bWPS8lBoAAAAASUVORK5CYII=;base64,iVBORw0KGgoAAAANSUhEUgAAACQAAAAkCAYAAADhAJiYAAADqUlEQVR4AexXPVQTQRCeXeAJnXTSQK6LnXRaqRWWUPCSs8LSjk4x8DyeBLCytTM2JDwbOumk0w6soLuERjrp4L2YXb/Z3Ia7y88Bd3nPwn07N7Mzk5kv+zN7J+kfa/8BJS1I4gwVy/6SW25opqRgWdgTAQkamaOgFd/5TwJxaKwLUGHDf2izYVZ8Il20YyHlN3ez/tWOw75Wl5ZHALmbfl4K+R1A7BLluhJo8cza2bfLnlIRAURaHsfj6aZyqqUZwaRJvYjbAQ6zGNfefhwBdKepJsKhGETNc+pWVys5Fa3UUzsGP4ePA55ZjwCqeM6lJlHh6FrTGfM41dacg45OqEcdOSMhAsjE1CrYN/rEjAc8Wi3KDzDfytQFSEhxxJGEEIlHXI6S8aUMWwRQsdx4RZqWKWhmHMiWYRMfWlko6Rc9P5hRq03HI4AE0RKFGsbbAOCbar3hL0PWMD8AXfUxWbgapJcigHBi7rdD6hq4PV05QfITCfmBggagHyGa5aqVZt5DzqxHAHFUgELNybngjpbKge4c1O5CHEAvdkozL8FnQcDWNvV6YkZ9kCmyzHv5xHVdgMIOtRWnToJ4Noxai1ZXYTSG/o8b76+BgNp51GciscdkANL1mluuV+OebrnhL5b96B6MOSUCqr5xTqql6QWm2G87Qz6Ni55/jxWFsl9EYmx+0bmUWR9QbpTkIeydKwq/fRvYDEsEZLwSHoJoe3RM/kIiLUnGZ+YSpSRe9fPsy4Tfei5OsE2RGhCC/rbBwlxrUay2L+WJ6urMFMt/mmoq7NORQyc4NSAEHQdFuiA1W1ud3o0oMfjiOWcMDGJXn/f8u6xMDQgJ+A0hfO8d7ZQcU6M4QS9SWkUuZcQQe55jyktqQJywpdQKcybUrgXmg2h31fnRscfeKjIBNDIiH9sENykN5jeCzOk0Mh6ZANJa/USsTHomgMJI3I3GVnh8DTm8/yg1IC5sgi9fCpqg14HUl8VKBdck3zpfB5D17cm5sMUNSHgR19kxbPw+ZY641YHn5rM69vEjjODcx5GYb/nj4tZp4Xn5dM7F3ebiCxjGXnfZUWbHPjjCqCF676KpJpEQMp7tnhdK1zTpfaLo3ca+uPA8QkMdmgUzPfWScRQEnKyWcgv8L1nWPb7f2I8JICrwMYUQL3frLLPeUiaAbDDL+fstnoht/N0HEAPfqYYCiJMHFF4+quC7L9D3ZcMFpJSLJfIs9UURMgwVUHXN2ccSrVsK5e0r/gUAAP//3w48PwAAAAZJREFUAwCeZFZYLXK9EQAAAABJRU5ErkJggg==;fontColor=light-dark(#000000,#5985E1);labelBackgroundColor=none;" vertex="1" parent="1">
          <mxGeometry x="412.1" y="127.5" width="36" height="36" as="geometry" />
        </mxCell>
        <mxCell id="x9XIAskeLC42xpHvOHnx-37" value="Configure" style="shape=image;verticalLabelPosition=bottom;labelBackgroundColor=none;verticalAlign=top;aspect=fixed;imageAspect=0;image=data:image/png,iVBORw0KGgoAAAANSUhEUgAAACQAAAAkCAYAAADhAJiYAAAEYUlEQVR4AexXPXDcRBR+q8TDuXM6aO6sDjqoGDroXLrJzMlVUpF0cRcsz3BMcgYqp3M6XFnnobA7yrRQQWc6cW5MF3c+xqDl+3T7dLsnyTdzHkiK3OjpvX1/+2m1760ukrfs9w7Qohey9Aolw7G9iRZN3GZfGlBbwtvqbw3IihyCBiQRO3rjgCbXxfYo7X1Durq2j/8zQMnz/Emyl282TXB/mH+s+tNBfNkkI/ZD1fs8eZZvJnvjL32dL7e/MhPti41Oyo27N/5Wg/rPxxd3JfpVx63cRmeIfa32ZO98H2MrUXQiVl6qfp43AkLwq8DRylMmIxkj73u2S0+eilb+nArlfY0xJLH2SalxN8zxkxMDVgP0YJB3EPy58/oDnATmX3aUpT0DuudrKWe7vQ+gB26prYKdgv2dfphjo5yrHMxuNUB/rUTVMiNx7MiIMS8YZq8L6NYTyjfRUdp7TF/6GDEvkceMpmA/oo6EuS7IfQoAuc3aoYMVORTvl+10t8ukg7hhxTxHTxzBlzFHaTeoPi/32vzmDwD5m9WI9L3cjWJ/kK9jf1yBtGtfuYdq9Fclcm+qjMI5q2QIASA+DXQTEK8OJ+o/y3U/UVfR1nB8YFaiHIpyRcF5dfhQyfA842CettAumBP6NRCvSzcn5ZICQNTAYdVbUjFR9AoTnNCmxJWBzyMd17ntz78K5kDNz9qFkReYq1YUNUBMjq77UExRbT5UxLQyaARhZWaJMW680IcCvbVVjqvr4l6209sO7G7QCIi2bCeuEvxji1+o80iX3FPdLPo5Tr3uPh/VCmje8f8atwLiPlEQd+5En6rsuG58N2xkgY+f4/4g97t9ENwIaGt4/gP2CSuodDbWBAnQ8Gb7q/So3wpbfBForVnX8d2V6IJVqmOf1wChLF9bsQ/UyUjxCRrbQx2Ts+HhgPyOchMZMYfHu/HPvi1LuwlAfqY6K/KIc+lYeQAIDvAT3bCTDOfVURr/Jg0/nFlfuUoMXs3fDQ+g4QTJnBhrTHn4YlxdASAmqyxiT2dys8RKxASrIB60Jf3Y8gBhhlluvP7YtwWAXDKH3vT90xj76oArON/w/GTzsnbmPvZkaDN6LE3K1+8ZA0DUv4emRU7CaXzGD7IE/zCwr6adGQ2v7VuGMUr00c5ssCeZA5ST1Acru6qy8hqgw0E8sWJ0Q66b8INsGmftBhLzQK0+VaYGEejLwxbdfUN1HmelkVAT1RyeWaQGiNZR2q2qgWPjvmfwRAZj//NDCwDq6qoOW36QMYYEBEFVzs+h0Y2AaLQiTwspkiztGZR99T2D5LGrLrq1EguEH2TqwKpErLHW9MUWjecYfVsBjdLe98dp3Pg/i9XFYNLmIK9WyZddgdAloNFu9zjbjcuvz8DgBq2AnH0hW10xB/3h+GtSZyXaXxiwwOHWgERMHxtr4Kjq8LLk7zaAXL9qnPkmW2OAKpcGhA0adGiMy07teK2/6ISL+NKAFiVe1v7WAfoXAAD//3MufTIAAAAGSURBVAMAT9/bWPS8lBoAAAAASUVORK5CYII=;fontColor=light-dark(#000000,#5985E1);flipH=0;" vertex="1" parent="1">
          <mxGeometry x="189" y="333.5" width="36" height="36" as="geometry" />
        </mxCell>
        <mxCell id="x9XIAskeLC42xpHvOHnx-38" value="Enable &#xa;Rollout" style="shape=image;verticalLabelPosition=bottom;labelBackgroundColor=none;verticalAlign=top;aspect=fixed;imageAspect=0;image=data:image/png,iVBORw0KGgoAAAANSUhEUgAAACQAAAAkCAYAAADhAJiYAAACnklEQVR4AexWMWzTUBC9bxE1ZaIbDNTyBhOwMTLCVgYEZmIrIxtNXAkjNWmZWGGDBQcxkA02VjbKBFtIGGBrt5QG+fPuJ/drp5YtHIM6+Otf/vf9f+9e7s6XOHTCRk2oKCF1hOoIFUWg6LyuoYUidLczfOh3hrpCGTNmHqnMlPnd79tMQhPt5BmXOGsyJmPf6QwfZdkfI4TLn0jHG6nLSr0HUFhWSPEXU/0kpiIK4etLUsf7FCG/O3oH5WWImeNJvBIFroraqzd6gfu4rERttxUFqzcjYC1N4mUDPv24MPM5fcKnJXQrHJwlra9Dx3Ofjfuht88PVcqL0DtgbGBOseHT+IaCpyV0quH8YAULDFZ4XVT87nAdaTl6Kbqjp4KZ9AHfA9FbQqJAnaTrRw7+cjWp0PQsZab1A39r9EF0qCPx1RSdIXR7a3BVFKiTJ7JfaEUqMu2VvrYWDs4QxqvAtb6EgyHkOM4lnFc2OVV5YKcbzvr8uXAwhOYP//WzVmQiRBnDEIrj+HPGWWnV0mH8Ms94fBjbVMk94WAIvd70PspBUWuXe3krv9pEqk/ZY1faSbJbCwdDKGmHt6ySn4sIjRAd+n4SmzTtRIF7RXQK3Vr2slpC2ok9UaJ3jGW/yIoO/RwElJVNtyV48LEn+9+T+JzsLaFey/tGR2FuwmAsrydVOO6FA8ZGImhW2Kr3JvR+0mxYQvwccZiJvvIe0lxuOHsghk47esv5LitoA9vcKBnrV8NJRn8XPn34sjNFiLVR4F4EfemgrILoNc53WUHtbCR+J4GHqZxUPUFj5jFCrOVuDWIKBOaI8elCcsCYjB21z9t6SiJmEpIL3NqNMf42VLQuM6bgZ625hGYG/3WpCRWFu45QHaGiCBSdn7ga+gMAAP//n0CWswAAAAZJREFUAwCWIINYYxqBuAAAAABJRU5ErkJggg==;fontColor=light-dark(#000000,#5985E1);flipH=0;" vertex="1" parent="1">
          <mxGeometry x="367.20000000000005" y="333.5" width="36" height="36" as="geometry" />
        </mxCell>
        <mxCell id="x9XIAskeLC42xpHvOHnx-39" value="Commit" style="shape=image;verticalLabelPosition=bottom;labelBackgroundColor=none;verticalAlign=top;aspect=fixed;imageAspect=0;image=data:image/png,iVBORw0KGgoAAAANSUhEUgAAACQAAAAkCAYAAADhAJiYAAACF0lEQVR4AexVvU7DMBA+R0LAxhNQssHWbrDBG7DRMMEEbLA2SBSJdIUNmGBLJR4CNtjo1m5R+xKAQDnuIrskLY7rIEQlYuVy5+/+Pl3ixIEpWyUh0wMpJ1ROyDQBk798h/7fhLxWtOy1+nveWXS4dRatmiZg8hd+h+rB4NEL+gjodAHhCoRz7ggnwQh/NjXW+QsRooYoAPOmUeUYXdM83JrQSKNe6FeEktn3eJ6a9UiSayQ2wUw3K0Jea3CvCiLEu0RkRe1Z3zbdV8YQ4wPes6RzeG8SK0KAuC4L9tq+eyvtMdU+dq8I7JBAKifZmm4ZQvWgf6KT7WBwqYrRo6kpW6cpZk356BSe6+oyruJYZwgJgKZOEHAf5OJHI02tysQgHOrqMg6plSGUwv/MzBBCmpBOQMAFyLXZjBakOZmiXF1dxtNFMoTafuVUJ2GjcqQS52ec4WlT2KimIz/8OHKuri7j6dwMobTjW1uIB4lX+Vch7TFVD6IdAqskAF85MMmyIhQ2FjeGRelXQVPo7jSjOYWxTVgkwLkBuTI5EstTVoS4EB1n/hqzybL8NuO8EAlkYZvAJZLkoo+kSAyLmzUhPs7cCEE85fTpcEyOX+uyJqQqtf3FNW76AXENBOwDxkdsM0ZSU3G2ujAh1ejOdztho3IdHrsXbCu8qP4xoaKNdXmTENLl/gpeEjKNtZxQOSHTBEz+qXuHPgEAAP//oXTHygAAAAZJREFUAwC+zvBJy0LxBAAAAABJRU5ErkJggg==;fontColor=light-dark(#000000,#5985E1);" vertex="1" parent="1">
          <mxGeometry x="120" y="131" width="36" height="36" as="geometry" />
        </mxCell>
        <mxCell id="x9XIAskeLC42xpHvOHnx-41" value="Build" style="shape=image;verticalLabelPosition=bottom;labelBackgroundColor=none;verticalAlign=top;aspect=fixed;imageAspect=0;image=data:image/png,iVBORw0KGgoAAAANSUhEUgAAACQAAAAkCAYAAADhAJiYAAAEVklEQVR4AexXPZTUNhCeUe7e2+ugSip23ZGOdNBBR8kVvKxThY50dIHz8e543AKpKBO6VNhJc9tRQirShS503qNJGbq793hn8Y0seeUf2bv3KCjw02ik0WjmszUaWYo+s+cLoKEFOdMXih/lF+PZIo1nR7qbFofTx/lkyHnX+FqA4oP8jgAgrf4l4ikFH77BhcpFNz44ehxU6xhYCdD3B/llMU6snjZsnGitXzHRb0Ka9N8YPwEtC9NdmTt9mF9dCsOtQUDx7N2hYvXaM3GiPxRRmowZtJXtTq49T8Y/CWXJ5IrIQKxVEWHOe5AprNTL+NG7F6bTU/UCwpv9Q6RvuPkWyFa2Hy2cLMSze9ECwM4TF99WOlpfL21WklYjCMi+zSU74wTGeRUgVr9i6U70VuZC4JbykrUNUbt0ApKYIbyNVRcwW7Z9ZgZQYqMEBduhmOoE5MeMNVQDMp0d7eHTuy1/HD/Mq2WtKTY6vi2Jqcaw6bYAiTMzgkpiBmyojEipQwDMhxRl3Aa7NMn3ZQSoWoCwffchl/I+FDNZMn6giZwe2WcCUNgEthdgEuwYMrvP8wVRWWqAbu7n35Ri7C1VfOfawhGIT/FGP0tbKADKbQJRCRK+UmX75iyvzakB2tj8qkp89k2WRrW+gzd64oM6/VA8WyqUreks/7FshWvf9gbxnq9ZA0Sk3XFQ7gZf07YtqD05zzY21X9WXDFF6uuq09+wPri2IRqASgua9Juy1V2zxI85z9rjp7r4qy1tS0I+OgEp4hYgTcWtttm2RGk6Rys8XT5kmpJqFcqS6Hfomd0BHi5KvUBeuh5W6B/pBFSQrkW+M4HEdh7twXMMeWkQVMhHJyDWfBGOOwtAmZP+tCi2iem2OTwZ7ab2wJdi4s6XbgDSmbHLNBgHf96P5unO+Jk5PHeiOYBtU/PpBzUSdU0soSBNQzVAWul7RoqqmbAg6i0AtjIoPwGTOn3gG64Bqics5f+U+XOC7T5Q/iTkL/wClxLfp0hqgETARHeFg0aS/MDXKl2gEHcwW5qZ7ufy829CQi99lYOoW4DwK/oL5GUJJL9yMFx7oORfqgIjM3hT5cKFcB4ufYkA1AIEGRW6uCJcCCf4sfB1SUDhy2z583xbTEV1wPo6nYD+2I1we+C5VRz5hqxsbQYbWCEyO4uIs+dJ1DoNCE8nIMgpTS7INn5LRNIVUNquv/RXJolDC8bNeQPbses0eRCQKKbJGDcGm5sgkPWH8WNxgm5vER3RpVoc8hw2O5fKGesFJEppMomR9ABMeoZG4gTONG6l/09ni9c/zI5+FZoeLF5CfgzSogNtu0T4sSmKa2n51SEOl0FAMhUBaq4y3NymTOeY+DKC47YQM18lcnGClhRNT1JcKrP70SvpDtFKgJwRSQliXONWqhsp3+mUXM/lgiC66e64yv7lWH+9FiBnSrJrlly4ZRzi7dt8sh26IDgbIX4mQCFjn0L+2QH6CAAA//881shAAAAABklEQVQDAKeIwlgVhGzgAAAAAElFTkSuQmCC;fontColor=light-dark(#000000,#5985E1);" vertex="1" parent="1">
          <mxGeometry x="214.1" y="127.5" width="36" height="36" as="geometry" />
        </mxCell>
        <mxCell id="x9XIAskeLC42xpHvOHnx-42" value="" style="shape=image;verticalLabelPosition=bottom;labelBackgroundColor=default;verticalAlign=top;aspect=fixed;imageAspect=0;image=data:image/png,iVBORw0KGgoAAAANSUhEUgAAACQAAAAkCAYAAADhAJiYAAACn0lEQVR4AexXvXLTQBDeuxlmTAddaCyrgy4ldKGDB2CQUpkK2nSAzCAmlqFMCRV08kweALrQQUeZdBelgQ46wgR8fCvf2YplW7oEMzCjm13tam9/Pq/uzpKkf2w0gKoeyP/dobt9dT1IsqdOvK02qrpSnHfqkBTygyCKnVjKPXIYToAc8p7Z1QlQGnnCsq2oT0a+tbFu7dbG0trqSCdAdRKe16cBVNXBpkNNh6o6UDXfrKGVdChMsu828S+iY6sXZdGnaK/SnR8ZCu0jaQsMEsPd2P8CJadh7B9qojc0Hi34qrFa/+oEaDM5eo3UV8FMB2nUDlkp8jDy7uH+AMzUCZPDlJW6XBtQkKiuJt01iY/TyLtm9JIwc+ZRioBjS04LDLUAbSZqXZDk7hAPFLzIMkwyPY+7sWpZH/YTiA0HynaWlo1KQJxck/xkk6AQ3s+IGIi1zcofF2S+6K1vPq/lPufK9SWXSkA2Oef4eTK6whJgvrJcxkE/+8zzxXekYi6em8dLAaGwngSNRrd5R8HG3bo0sS9QhKC1cHC0xzuPEGvdED/NaY0FuRAQAqddELSTPvHfhf3sOWLXwfVI6w3+IOBY0vTCBiG3svqsnAuIfxkc8y5oEh/Tx95WwF8Pgh7C7kRYcHG4rW6lPe8RafHeBHdMDXM7FSVA+RbFLzMu34ZR+8adWK0Jx68HEz8WUr4NYtVJe+2bMIyPA9QIB9l93J+iEiCBLUpmYJdcJiLaxWkMffKCfxY9X0vIi1g+MgwoegnTKSoBwuzYGQqe9dxz5rx2pDZ/PTSpBVtOJUDYpgtP4DziD15wjPiz6UqAuLVoqyBBDzS+UlfBpEdbXIOXQiUg64Cd9WoYec9WwWnP37F1ZmWpQ7MOf/u+AVTV8d8AAAD//0yHGzoAAAAGSURBVAMAXZGZWLbnhkMAAAAASUVORK5CYII=;" vertex="1" parent="1">
          <mxGeometry x="331.20000000000005" y="322" width="18" height="18" as="geometry" />
        </mxCell>
        <mxCell id="x9XIAskeLC42xpHvOHnx-43" value="Deploy" style="shape=image;verticalLabelPosition=bottom;labelBackgroundColor=none;verticalAlign=top;aspect=fixed;imageAspect=0;image=data:image/png,iVBORw0KGgoAAAANSUhEUgAAACQAAAAkCAYAAADhAJiYAAADZElEQVR4AexXP3PTMBR/8pGjnWg3GCDVVj4C3wC2diJmaifKxsaRlDtzNL1usFEmMuH0GNoNvgFsjGVz0omtZUq5gMR7tp+jKI4tJx0yVGf5Pb2/P8v2k+TBgrVrQGUvZO4Z8tu9Y7/d10nvhWUJy/QzA/L3+08JBIDYgKyJBska7WgrE1VkKgNqBNEaJQUNh0auHvLUkQAI8D6izYBsoWKrBAiTRKLmRWYOPVQybNXjDkLdN3RLZIs+p4aslHUC5Ld7oY/fCUZbwx5fGtQ2AhHdQGYzEzblT5LhFO3ERsltnXyftPvvk2HxvRCQ/ybaoGAAogHchPhKSbst2WGRTcNm/QPZAOgT1mmAHYrV2Dt7zLI8mgtoI4hWyBk879hwuqAkYfPeI0NWyIattc2bQ7WMRhfY40sI3cXYA8oRC6xbLqDlmndu2qXfyaopc+U7gbzEB1m1vy87B8ebAOTvRc9ZyfRfDVZgzqYUTMSg0gFWmwCkhXfLsoEb4P2gad4KoiVbVzYmH/L1hPfNttUabtuyCUCmgdLqgTFe+lPzBv7+2RdDVsiSLfmg0ehBxksDqsavQkBHu/I7vn8BwjvI3LR+iE+si6oxvQqyAbRlP/zLAopFpYFlebQQEDuEzbsvKRiOs5ojkmqszWpMfAIEzCoe16Zuq/4aHJoTII6DoOTfobrDY6JcjRGIXcUvB0O1ij5m9SaXwl4JEEX6HMhfmEQoUD6N076ONKvioNQm2iyfBDKrP6h3uioD4qhHLdnFpAK/jQ7LBMAhycJX8oRlVenMgDgRfhvbzH9q1Z8xPyudG9Csiaf5XQOaNjMsX/wZElr9ZrSNdv8F81dFzcXbzMXxJ2Yo3JXvWIm/8QEWPO3vR1RnWDwTpRgUC5ehtxzAzMWyCUCkSDdVxCZde6cYbGyPlCjK7+lqfw4Yw7COq7gxzthcQJ1kU2VX43gX6eP+OvMuYdD2OF3tR3uhkiqeC4jzpNVYmNUYcH/t44bfabU3zmz4+p2qeCEgSBtV4/Q12qv92Nlrymrfo+XEtYo7ASJc6WuU9t6YVnvSUzd5Gqd7cUm8a3cGxAFpg0VPbJ29WB3TvDNbrHC4VQbEMcPR2avLMnA4s2W2U5iZAXE8PHv5NGNxr3BmY3+bzg3IDjjveOEA/QcAAP//MQ5L9wAAAAZJREFUAwCHrnRYO+nwsgAAAABJRU5ErkJggg==;fontColor=light-dark(#000000,#5985E1);flipH=0;" vertex="1" parent="1">
          <mxGeometry x="249" y="333.5" width="36" height="36" as="geometry" />
        </mxCell>
        <mxCell id="x9XIAskeLC42xpHvOHnx-45" value="Smoke&#xa;Test" style="shape=image;verticalLabelPosition=bottom;labelBackgroundColor=none;verticalAlign=top;aspect=fixed;imageAspect=0;image=data:image/png,iVBORw0KGgoAAAANSUhEUgAAACQAAAAkCAYAAADhAJiYAAAC10lEQVR4AexXMXDTMBT9Uhou3WCCqYk3RkY2YGKlA0cyUSbYoBPXuj3CkXAwlY1jY6qTrYxMdISRjc3NBCMbpVwk/pfzHcW2jNzDuR6HTl//6UtPepEtS5FwxtJ/QX96IGd/hbrP4uvd4eTJUgznyq5YfoWkvCYA+sswwLkgk/KCMh2WXS0VFIVtUYeV/chSQWXEutpygoRSn3my3nCi6zAeX4L4yJi9ZMA+2g0OGNft98O199k5coKoA703Woquxt1GRrGZHVG9iiHvC5rJzAOl1mkOE8wUhYKoz2hrbTwK20/JsP4djXKH6lUMSZfRQGv4xryyp+AURIOwaVCbjKt+MJknpLrBuMx7CRqFwVsepOoHk3nRdpA+Oo4VeS9BRNTK7xdS36z9+KUuZGOuureg0W5wSC/iaeygH/A76NKRxr0FpYyawb8naKMft/7monmvEB8hdF+yBZw0G3umbTD5ascJmzgeP1kOtbnMS1BvED/iAejlZkxeg36QeCrn1h3GG1zLcjhe5L0EgZAPi8gLsYZIRZu4aNw1vmLhJwigA5Q0uLfvz+knsJJQ+opV9Ya+ghIhAs6DI4lz8uZCk4CEA9WSlyAB8IKHvdWPi0VpeAV2Uio9/27340t2Uxn2ErQftl/yIKtNGTMmr0HdI4/WujOIr6I32T7RVzIc08FReAkirsa7EXm0hRWyD14p5Adsn2eteJVazpWd9zbIR5DpSHcZA7DoPZ/cR5dmS+zCRzLaCdLHuLoiH6eEEuAtKDOGuXRxbArqHWOnFyLZqc4OScOpBAm8/SX0pGxC42KC3CWu4rG7dd7iLcjeKUqq8XwIAA063YV23MZaT9/YdRf2FrTSFK95kNFWcMR45s1HUAtxOKsbh+/angFYjHeC3F8eDOeyt6Ao7Jh/CkU3R760HZ9M1+0Zou32JrUVcex+NvYWxKSyg9J1Myzj8LjsKwtiYl3+NwAAAP//RL0KBQAAAAZJREFUAwCiLLdYrmPk3QAAAABJRU5ErkJggg==;fontColor=light-dark(#000000,#5985E1);flipH=0;" vertex="1" parent="1">
          <mxGeometry x="308" y="333.5" width="36" height="36" as="geometry" />
        </mxCell>
        <mxCell id="x9XIAskeLC42xpHvOHnx-47" value="Security &#xa;Scan" style="shape=image;verticalLabelPosition=bottom;labelBackgroundColor=none;verticalAlign=top;aspect=fixed;imageAspect=0;image=data:image/png,iVBORw0KGgoAAAANSUhEUgAAACQAAAAkCAYAAADhAJiYAAACdklEQVR4AexXPW8TQRCdPcmK3UFHhXMdLSUd6aCj9FGFCvgHgBPpUOSIdHSkI1VsREFKOlJS0lFeLArKpHPA0W7eu2gln53dvY9YSuHTPc/u7Myb51mf7y6SW3asBIU2pHGHeoNsMxmMDTDhOFQwtF5LULKbPYCADDBKos9ydbQVxvQBWS/N1qXGUUlQMjgZJuiGmOg3avkKrqtWlAt+Phh/QmzpMyiI20ARhIjqycxhlDpem+rOsN9VM+7C0Ii8Yi5QakujQvbMBAT5N1TYBike59roRxQxend/4yCNz4vLzllhS11RTkFIKGwJvmlKEUDny1b8E+tNzgL3LJFPUB5nhYz63fe5Y8kfQUFLrr9AvxK00JI5x6pDcw1ZmK46tNCSOUewQwi4N5ez1Cnq+fnxx2jvRXzEcAL/4CoEVDoBvKdP0Jk3s96i85Zh6ZyC0JmPNujGrZIPLk6noPZU77mS6viTnT9PbN7af+28LzoFVXissHX8NtLfbICP2ymIydi2lLYpnqXZHXC0ARHj3i6uewXd1CNHpxX9ZTFiuNV9S+uCVxCTmnYp2R2/BE/enTJcQUFNupS/eRjZh6D8LMMVFEQmPsjTVgF/N3zzsDllOcoIEl4VF6IfWvKQ7e1kj/G7ObVxCrnksHOfLSWIBF/78S/R+inHLmymWRtvK6cqin7YGKP1xiFzrSNgSwsiz3A7/j6Z6rsczwNCzL9WNIGflziMCGNH2/FxPin5UUkQOY/S+Iw3UVwxB5xfByWyz5gjxF637vNVFmTJcMW8YFEUf2N9HNN32O++tr6qtrYgWwjF9yiC4Nj669rGguoWduXdOkGXAAAA//+cdJIBAAAABklEQVQDAM/z7kngM3/hAAAAAElFTkSuQmCC;fontColor=light-dark(#000000,#5985E1);" vertex="1" parent="1">
          <mxGeometry x="346" y="127.5" width="36" height="36" as="geometry" />
        </mxCell>
        <mxCell id="x9XIAskeLC42xpHvOHnx-50" value="Test" style="shape=image;verticalLabelPosition=bottom;labelBackgroundColor=none;verticalAlign=top;aspect=fixed;imageAspect=0;image=data:image/png,iVBORw0KGgoAAAANSUhEUgAAACQAAAAkCAYAAADhAJiYAAACn0lEQVR4AexXvXLTQBDeuxlmTAddaCyrgy4ldKGDB2CQUpkK2nSAzCAmlqFMCRV08kweALrQQUeZdBelgQ46wgR8fCvf2YplW7oEMzCjm13tam9/Pq/uzpKkf2w0gKoeyP/dobt9dT1IsqdOvK02qrpSnHfqkBTygyCKnVjKPXIYToAc8p7Z1QlQGnnCsq2oT0a+tbFu7dbG0trqSCdAdRKe16cBVNXBpkNNh6o6UDXfrKGVdChMsu828S+iY6sXZdGnaK/SnR8ZCu0jaQsMEsPd2P8CJadh7B9qojc0Hi34qrFa/+oEaDM5eo3UV8FMB2nUDlkp8jDy7uH+AMzUCZPDlJW6XBtQkKiuJt01iY/TyLtm9JIwc+ZRioBjS04LDLUAbSZqXZDk7hAPFLzIMkwyPY+7sWpZH/YTiA0HynaWlo1KQJxck/xkk6AQ3s+IGIi1zcofF2S+6K1vPq/lPufK9SWXSkA2Oef4eTK6whJgvrJcxkE/+8zzxXekYi6em8dLAaGwngSNRrd5R8HG3bo0sS9QhKC1cHC0xzuPEGvdED/NaY0FuRAQAqddELSTPvHfhf3sOWLXwfVI6w3+IOBY0vTCBiG3svqsnAuIfxkc8y5oEh/Tx95WwF8Pgh7C7kRYcHG4rW6lPe8RafHeBHdMDXM7FSVA+RbFLzMu34ZR+8adWK0Jx68HEz8WUr4NYtVJe+2bMIyPA9QIB9l93J+iEiCBLUpmYJdcJiLaxWkMffKCfxY9X0vIi1g+MgwoegnTKSoBwuzYGQqe9dxz5rx2pDZ/PTSpBVtOJUDYpgtP4DziD15wjPiz6UqAuLVoqyBBDzS+UlfBpEdbXIOXQiUg64Cd9WoYec9WwWnP37F1ZmWpQ7MOf/u+AVTV8d8AAAD//0yHGzoAAAAGSURBVAMAXZGZWLbnhkMAAAAASUVORK5CYII=;fontColor=light-dark(#000000,#5985E1);" vertex="1" parent="1">
          <mxGeometry x="280" y="127.5" width="36" height="36" as="geometry" />
        </mxCell>
        <mxCell id="x9XIAskeLC42xpHvOHnx-51" value="" style="shape=image;imageAspect=0;aspect=fixed;verticalLabelPosition=bottom;verticalAlign=top;image=data:image/png,iVBORw0KGgoAAAANSUhEUgAAACQAAAAkCAYAAADhAJiYAAABzklEQVR4AexXS07DMBCdWKrEkhuU3ARuwDJdASfgABEiCFWcgRWwIogNN4CbhO5YskJIkRz83KSKK3+Kp6SoqqXnSWYyb14nThML+mfDEJRNZ5cucHW7eOHvcxuCEqLCBWIOFy/8fWpDUD+wqWOroEZ16jEfJ31wBfa5cIwaNk6rINuFQ/mCgrJpdTqZzpp1AFyhH+YVdFxU+wmJO1rTSBRXdlMdkGcYghopjwCq5QNy9kbiHBbAPecAHBpSnGiraqAWoM/byRBUXqRvGkX63sYXpszHVxwsiNqDUtXQtVTN1qWNIUh7Njxtj6DQUxfb6O3pUGwHQnnRHcLfvw+hwq54tCAXIdcfLWi3qEOt960fxEL5rnj0LXMRcv3RgnZriNv62PzoW4aF68PggmILhvKiOxQijo0bgrLr6lCjmH/3quB3R4wdJgcdT8eZqRq6lqrZxWBVHGaORIhXgEZCf/fW6ruXiHQQO0wONImavmp5qwyhBmoB+rydRGut5rlIPxqSZ9ZghFOSnLwU6acv1SsIiWWe3vuept/EnvK0BKcPQUG+5L+IWQVhrSy/GrjFl/lQw8ZpFWS7cCifIci3M+UKWpXbEOTbmXIFrcr9AwAA///7sgeoAAAABklEQVQDADdVz1iYO1VqAAAAAElFTkSuQmCC;base64,iVBORw0KGgoAAAANSUhEUgAAACQAAAAkCAYAAADhAJiYAAAC10lEQVR4AexXMXDTMBT9Uhou3WCCqYk3RkY2YGKlA0cyUSbYoBPXuj3CkXAwlY1jY6qTrYxMdISRjc3NBCMbpVwk/pfzHcW2jNzDuR6HTl//6UtPepEtS5FwxtJ/QX96IGd/hbrP4uvd4eTJUgznyq5YfoWkvCYA+sswwLkgk/KCMh2WXS0VFIVtUYeV/chSQWXEutpygoRSn3my3nCi6zAeX4L4yJi9ZMA+2g0OGNft98O199k5coKoA703Woquxt1GRrGZHVG9iiHvC5rJzAOl1mkOE8wUhYKoz2hrbTwK20/JsP4djXKH6lUMSZfRQGv4xryyp+AURIOwaVCbjKt+MJknpLrBuMx7CRqFwVsepOoHk3nRdpA+Oo4VeS9BRNTK7xdS36z9+KUuZGOuureg0W5wSC/iaeygH/A76NKRxr0FpYyawb8naKMft/7monmvEB8hdF+yBZw0G3umbTD5ascJmzgeP1kOtbnMS1BvED/iAejlZkxeg36QeCrn1h3GG1zLcjhe5L0EgZAPi8gLsYZIRZu4aNw1vmLhJwigA5Q0uLfvz+knsJJQ+opV9Ya+ghIhAs6DI4lz8uZCk4CEA9WSlyAB8IKHvdWPi0VpeAV2Uio9/27340t2Uxn2ErQftl/yIKtNGTMmr0HdI4/WujOIr6I32T7RVzIc08FReAkirsa7EXm0hRWyD14p5Adsn2eteJVazpWd9zbIR5DpSHcZA7DoPZ/cR5dmS+zCRzLaCdLHuLoiH6eEEuAtKDOGuXRxbArqHWOnFyLZqc4OScOpBAm8/SX0pGxC42KC3CWu4rG7dd7iLcjeKUqq8XwIAA063YV23MZaT9/YdRf2FrTSFK95kNFWcMR45s1HUAtxOKsbh+/angFYjHeC3F8eDOeyt6Ao7Jh/CkU3R760HZ9M1+0Zou32JrUVcex+NvYWxKSyg9J1Myzj8LjsKwtiYl3+NwAAAP//RL0KBQAAAAZJREFUAwCiLLdYrmPk3QAAAABJRU5ErkJggg==;base64,iVBORw0KGgoAAAANSUhEUgAAACQAAAAkCAYAAADhAJiYAAADs0lEQVR4AeyXPVQTQRCAZ+/BM3bYaeFLrtNOO+0ssaTgkbNRO+2wExIf8UGiVlhiR8WFR0MnnaV02kkXgoV00EVeeDfObG4ut3eb3OVIQeG9m5vZ3dnZ7/b27xy4Ztd/oKwPMvUe8prdntc88Zc2Oo+yGreVp4C8jc4yBcVxYgsUyysBYNVRzncdo3WyGSvLNFNAmTUmdUAcvGCrcy9P1RRQAHCIAA0RBWorTyDx8WtlxXIJwUPJ0xqdX16rm9lbKaDdunvYrpXfsygV7CLgKx1wwsdezf3JYBAET6OqCMte6+RrlLYYKSDxedHolIDeStIBBo/FnkT779wDDSaVEOe9je4HSSb1SKCLWacnzoq6n3tO0kW0AaXg7WKjc9sWxwrkNY99cUYIXu5Q90v6KvpGP7gp9WdmnT9ix7UVCEBVgS5EOG3X3G0yp3JvN9y/gMEbCVZd7zwRW3QKyGsdR4OuXS/fEUetEc6BBfJfi83Og7i3X3c/S1o5TtSW5KWAANV8WHgU6kj59fItligjw+AVewacH8lVm5eUsCotoqEVKgMoPtDQCYbTNXSeRDEM0IrNdXjVZi1S6gefxPbWf0sH6CwDaHbWea5z6dFecY9JFbrjMBzAmGGUoccSab7pxZdYixhAGL6RFBbRWTDJmArAGNgGEI2fCoy5vGYXk+Mh7j4pjK6LMAexywRSkBpk4sswbPN4sEEVguGAiTZNIIBT9rFJfFFLQhWG0Q2hMZsNIPqeB9rH8uCBaIO6Ggw1pJTRpgHUh+ALuehbb67aGj5sUDK12Ss5mzjPJsbyooZtsq8BxEcGzmS5mHHWWCclCSXleWHYn/axaIVOLi8GEDuTnJMA0I4MI64k1CgYOmacsVjCDLYThcbnYr8U0GU/uM8FLHy+Zm0TgRoFo+somKMXm4PYRbP1TJL+aiW1G6SA9houz7Swl5xN21iSgAwldh4dvmAIiPu2OikgdqLZFO3y8YMalxWVZ7zrK2dT6vu1yoLYcW0F2qZzC9LBTBypm1HsIprPPUi7vtQd95mtQFyRD2a0LvEfByeBoTiwTkz4oHPPt6iKGo7RKC9mjARin51a+TV1TYNtFg5MYD3b1sHlWaJAbSE6S9Vmd43FFmcsEDfAv0NgvlWJtw4C47/bHvvkFaRfKgXQEKHGU7/blAeZl7/qHunvrpyPCeeRm3HCL3cyF5BE81fvrgzAeBzgvuSP0uw7VmLna4kxEZBUGvRYZYEbk7xp6UJA02rcFufaAf0DAAD//2E8jYMAAAAGSURBVAMA3xyDWKh3ivsAAAAASUVORK5CYII=;base64,iVBORw0KGgoAAAANSUhEUgAAACQAAAAkCAYAAADhAJiYAAADZElEQVR4AexXP3PTMBR/8pGjnWg3GCDVVj4C3wC2diJmaifKxsaRlDtzNL1usFEmMuH0GNoNvgFsjGVz0omtZUq5gMR7tp+jKI4tJx0yVGf5Pb2/P8v2k+TBgrVrQGUvZO4Z8tu9Y7/d10nvhWUJy/QzA/L3+08JBIDYgKyJBska7WgrE1VkKgNqBNEaJQUNh0auHvLUkQAI8D6izYBsoWKrBAiTRKLmRWYOPVQybNXjDkLdN3RLZIs+p4aslHUC5Ld7oY/fCUZbwx5fGtQ2AhHdQGYzEzblT5LhFO3ERsltnXyftPvvk2HxvRCQ/ybaoGAAogHchPhKSbst2WGRTcNm/QPZAOgT1mmAHYrV2Dt7zLI8mgtoI4hWyBk879hwuqAkYfPeI0NWyIattc2bQ7WMRhfY40sI3cXYA8oRC6xbLqDlmndu2qXfyaopc+U7gbzEB1m1vy87B8ebAOTvRc9ZyfRfDVZgzqYUTMSg0gFWmwCkhXfLsoEb4P2gad4KoiVbVzYmH/L1hPfNttUabtuyCUCmgdLqgTFe+lPzBv7+2RdDVsiSLfmg0ehBxksDqsavQkBHu/I7vn8BwjvI3LR+iE+si6oxvQqyAbRlP/zLAopFpYFlebQQEDuEzbsvKRiOs5ojkmqszWpMfAIEzCoe16Zuq/4aHJoTII6DoOTfobrDY6JcjRGIXcUvB0O1ij5m9SaXwl4JEEX6HMhfmEQoUD6N076ONKvioNQm2iyfBDKrP6h3uioD4qhHLdnFpAK/jQ7LBMAhycJX8oRlVenMgDgRfhvbzH9q1Z8xPyudG9Csiaf5XQOaNjMsX/wZElr9ZrSNdv8F81dFzcXbzMXxJ2Yo3JXvWIm/8QEWPO3vR1RnWDwTpRgUC5ehtxzAzMWyCUCkSDdVxCZde6cYbGyPlCjK7+lqfw4Yw7COq7gxzthcQJ1kU2VX43gX6eP+OvMuYdD2OF3tR3uhkiqeC4jzpNVYmNUYcH/t44bfabU3zmz4+p2qeCEgSBtV4/Q12qv92Nlrymrfo+XEtYo7ASJc6WuU9t6YVnvSUzd5Gqd7cUm8a3cGxAFpg0VPbJ29WB3TvDNbrHC4VQbEMcPR2avLMnA4s2W2U5iZAXE8PHv5NGNxr3BmY3+bzg3IDjjveOEA/QcAAP//MQ5L9wAAAAZJREFUAwCHrnRYO+nwsgAAAABJRU5ErkJggg==;base64,iVBORw0KGgoAAAANSUhEUgAAACQAAAAkCAYAAADhAJiYAAACn0lEQVR4AexXvXLTQBDeuxlmTAddaCyrgy4ldKGDB2CQUpkK2nSAzCAmlqFMCRV08kweALrQQUeZdBelgQ46wgR8fCvf2YplW7oEMzCjm13tam9/Pq/uzpKkf2w0gKoeyP/dobt9dT1IsqdOvK02qrpSnHfqkBTygyCKnVjKPXIYToAc8p7Z1QlQGnnCsq2oT0a+tbFu7dbG0trqSCdAdRKe16cBVNXBpkNNh6o6UDXfrKGVdChMsu828S+iY6sXZdGnaK/SnR8ZCu0jaQsMEsPd2P8CJadh7B9qojc0Hi34qrFa/+oEaDM5eo3UV8FMB2nUDlkp8jDy7uH+AMzUCZPDlJW6XBtQkKiuJt01iY/TyLtm9JIwc+ZRioBjS04LDLUAbSZqXZDk7hAPFLzIMkwyPY+7sWpZH/YTiA0HynaWlo1KQJxck/xkk6AQ3s+IGIi1zcofF2S+6K1vPq/lPufK9SWXSkA2Oef4eTK6whJgvrJcxkE/+8zzxXekYi6em8dLAaGwngSNRrd5R8HG3bo0sS9QhKC1cHC0xzuPEGvdED/NaY0FuRAQAqddELSTPvHfhf3sOWLXwfVI6w3+IOBY0vTCBiG3svqsnAuIfxkc8y5oEh/Tx95WwF8Pgh7C7kRYcHG4rW6lPe8RafHeBHdMDXM7FSVA+RbFLzMu34ZR+8adWK0Jx68HEz8WUr4NYtVJe+2bMIyPA9QIB9l93J+iEiCBLUpmYJdcJiLaxWkMffKCfxY9X0vIi1g+MgwoegnTKSoBwuzYGQqe9dxz5rx2pDZ/PTSpBVtOJUDYpgtP4DziD15wjPiz6UqAuLVoqyBBDzS+UlfBpEdbXIOXQiUg64Cd9WoYec9WwWnP37F1ZmWpQ7MOf/u+AVTV8d8AAAD//0yHGzoAAAAGSURBVAMAXZGZWLbnhkMAAAAASUVORK5CYII=;base64,iVBORw0KGgoAAAANSUhEUgAAACQAAAAkCAYAAADhAJiYAAAEVklEQVR4AexXPZTUNhCeUe7e2+ugSip23ZGOdNBBR8kVvKxThY50dIHz8e543AKpKBO6VNhJc9tRQirShS503qNJGbq793hn8Y0seeUf2bv3KCjw02ik0WjmszUaWYo+s+cLoKEFOdMXih/lF+PZIo1nR7qbFofTx/lkyHnX+FqA4oP8jgAgrf4l4ikFH77BhcpFNz44ehxU6xhYCdD3B/llMU6snjZsnGitXzHRb0Ka9N8YPwEtC9NdmTt9mF9dCsOtQUDx7N2hYvXaM3GiPxRRmowZtJXtTq49T8Y/CWXJ5IrIQKxVEWHOe5AprNTL+NG7F6bTU/UCwpv9Q6RvuPkWyFa2Hy2cLMSze9ECwM4TF99WOlpfL21WklYjCMi+zSU74wTGeRUgVr9i6U70VuZC4JbykrUNUbt0ApKYIbyNVRcwW7Z9ZgZQYqMEBduhmOoE5MeMNVQDMp0d7eHTuy1/HD/Mq2WtKTY6vi2Jqcaw6bYAiTMzgkpiBmyojEipQwDMhxRl3Aa7NMn3ZQSoWoCwffchl/I+FDNZMn6giZwe2WcCUNgEthdgEuwYMrvP8wVRWWqAbu7n35Ri7C1VfOfawhGIT/FGP0tbKADKbQJRCRK+UmX75iyvzakB2tj8qkp89k2WRrW+gzd64oM6/VA8WyqUreks/7FshWvf9gbxnq9ZA0Sk3XFQ7gZf07YtqD05zzY21X9WXDFF6uuq09+wPri2IRqASgua9Juy1V2zxI85z9rjp7r4qy1tS0I+OgEp4hYgTcWtttm2RGk6Rys8XT5kmpJqFcqS6Hfomd0BHi5KvUBeuh5W6B/pBFSQrkW+M4HEdh7twXMMeWkQVMhHJyDWfBGOOwtAmZP+tCi2iem2OTwZ7ab2wJdi4s6XbgDSmbHLNBgHf96P5unO+Jk5PHeiOYBtU/PpBzUSdU0soSBNQzVAWul7RoqqmbAg6i0AtjIoPwGTOn3gG64Bqics5f+U+XOC7T5Q/iTkL/wClxLfp0hqgETARHeFg0aS/MDXKl2gEHcwW5qZ7ufy829CQi99lYOoW4DwK/oL5GUJJL9yMFx7oORfqgIjM3hT5cKFcB4ufYkA1AIEGRW6uCJcCCf4sfB1SUDhy2z583xbTEV1wPo6nYD+2I1we+C5VRz5hqxsbQYbWCEyO4uIs+dJ1DoNCE8nIMgpTS7INn5LRNIVUNquv/RXJolDC8bNeQPbses0eRCQKKbJGDcGm5sgkPWH8WNxgm5vER3RpVoc8hw2O5fKGesFJEppMomR9ABMeoZG4gTONG6l/09ni9c/zI5+FZoeLF5CfgzSogNtu0T4sSmKa2n51SEOl0FAMhUBaq4y3NymTOeY+DKC47YQM18lcnGClhRNT1JcKrP70SvpDtFKgJwRSQliXONWqhsp3+mUXM/lgiC66e64yv7lWH+9FiBnSrJrlly4ZRzi7dt8sh26IDgbIX4mQCFjn0L+2QH6CAAA//881shAAAAABklEQVQDAKeIwlgVhGzgAAAAAElFTkSuQmCC;base64,iVBORw0KGgoAAAANSUhEUgAAACQAAAAkCAYAAADhAJiYAAABOUlEQVR4AeyUTW7CMBCFx7lAb9A0N2p3ya69QfeuVFWq971B2YUd3CjADbgAZgxYtmbEZIOHIMXyi/wXv8/jkSuYWJmBxi5kjtDjR6h12+/Obb2GgheNmJhDHg4fUfTHUn0RaGmbRVQpALqvCEQXa/RFoDyPNGCCBwMy/rDHiY2GLl5olSoD6r+av97WjYrQK6GcWwzoPHy/7/SBwmOVJ3PJdvCidzESIbMGiAKVIgL19vktSoUGTUQgnFevIlDndqsoLTIRCMC/JukgMaClrX96WxsNBS96TAZEF2j3pw/U/Q6f+BgOKkIvegMsQt5UT7joRUMXL7RKlQGlKYA8sfPxkm0RqKTxtb1FoNYN760bTrq2wa3HRSAD1X8UKBUGFB6rPHdKtoMXPScDogu0+zPQWMTnCI1F6AgAAP//e2jpTgAAAAZJREFUAwB4vKVYYm11AwAAAABJRU5ErkJggg==;base64,iVBORw0KGgoAAAANSUhEUgAAACQAAAAkCAYAAADhAJiYAAACF0lEQVR4AexVvU7DMBA+R0LAxhNQssHWbrDBG7DRMMEEbLA2SBSJdIUNmGBLJR4CNtjo1m5R+xKAQDnuIrskLY7rIEQlYuVy5+/+Pl3ixIEpWyUh0wMpJ1ROyDQBk798h/7fhLxWtOy1+nveWXS4dRatmiZg8hd+h+rB4NEL+gjodAHhCoRz7ggnwQh/NjXW+QsRooYoAPOmUeUYXdM83JrQSKNe6FeEktn3eJ6a9UiSayQ2wUw3K0Jea3CvCiLEu0RkRe1Z3zbdV8YQ4wPes6RzeG8SK0KAuC4L9tq+eyvtMdU+dq8I7JBAKifZmm4ZQvWgf6KT7WBwqYrRo6kpW6cpZk356BSe6+oyruJYZwgJgKZOEHAf5OJHI02tysQgHOrqMg6plSGUwv/MzBBCmpBOQMAFyLXZjBakOZmiXF1dxtNFMoTafuVUJ2GjcqQS52ec4WlT2KimIz/8OHKuri7j6dwMobTjW1uIB4lX+Vch7TFVD6IdAqskAF85MMmyIhQ2FjeGRelXQVPo7jSjOYWxTVgkwLkBuTI5EstTVoS4EB1n/hqzybL8NuO8EAlkYZvAJZLkoo+kSAyLmzUhPs7cCEE85fTpcEyOX+uyJqQqtf3FNW76AXENBOwDxkdsM0ZSU3G2ujAh1ejOdztho3IdHrsXbCu8qP4xoaKNdXmTENLl/gpeEjKNtZxQOSHTBEz+qXuHPgEAAP//oXTHygAAAAZJREFUAwC+zvBJy0LxBAAAAABJRU5ErkJggg==;base64,iVBORw0KGgoAAAANSUhEUgAAACQAAAAkCAYAAADhAJiYAAACnklEQVR4AexWMWzTUBC9bxE1ZaIbDNTyBhOwMTLCVgYEZmIrIxtNXAkjNWmZWGGDBQcxkA02VjbKBFtIGGBrt5QG+fPuJ/drp5YtHIM6+Otf/vf9f+9e7s6XOHTCRk2oKCF1hOoIFUWg6LyuoYUidLczfOh3hrpCGTNmHqnMlPnd79tMQhPt5BmXOGsyJmPf6QwfZdkfI4TLn0jHG6nLSr0HUFhWSPEXU/0kpiIK4etLUsf7FCG/O3oH5WWImeNJvBIFroraqzd6gfu4rERttxUFqzcjYC1N4mUDPv24MPM5fcKnJXQrHJwlra9Dx3Ofjfuht88PVcqL0DtgbGBOseHT+IaCpyV0quH8YAULDFZ4XVT87nAdaTl6Kbqjp4KZ9AHfA9FbQqJAnaTrRw7+cjWp0PQsZab1A39r9EF0qCPx1RSdIXR7a3BVFKiTJ7JfaEUqMu2VvrYWDs4QxqvAtb6EgyHkOM4lnFc2OVV5YKcbzvr8uXAwhOYP//WzVmQiRBnDEIrj+HPGWWnV0mH8Ms94fBjbVMk94WAIvd70PspBUWuXe3krv9pEqk/ZY1faSbJbCwdDKGmHt6ySn4sIjRAd+n4SmzTtRIF7RXQK3Vr2slpC2ok9UaJ3jGW/yIoO/RwElJVNtyV48LEn+9+T+JzsLaFey/tGR2FuwmAsrydVOO6FA8ZGImhW2Kr3JvR+0mxYQvwccZiJvvIe0lxuOHsghk47esv5LitoA9vcKBnrV8NJRn8XPn34sjNFiLVR4F4EfemgrILoNc53WUHtbCR+J4GHqZxUPUFj5jFCrOVuDWIKBOaI8elCcsCYjB21z9t6SiJmEpIL3NqNMf42VLQuM6bgZ625hGYG/3WpCRWFu45QHaGiCBSdn7ga+gMAAP//n0CWswAAAAZJREFUAwCWIINYYxqBuAAAAABJRU5ErkJggg==;base64,iVBORw0KGgoAAAANSUhEUgAAACQAAAAkCAYAAADhAJiYAAAEYUlEQVR4AexXPXDcRBR+q8TDuXM6aO6sDjqoGDroXLrJzMlVUpF0cRcsz3BMcgYqp3M6XFnnobA7yrRQQWc6cW5MF3c+xqDl+3T7dLsnyTdzHkiK3OjpvX1/+2m1760ukrfs9w7Qohey9Aolw7G9iRZN3GZfGlBbwtvqbw3IihyCBiQRO3rjgCbXxfYo7X1Durq2j/8zQMnz/Emyl282TXB/mH+s+tNBfNkkI/ZD1fs8eZZvJnvjL32dL7e/MhPti41Oyo27N/5Wg/rPxxd3JfpVx63cRmeIfa32ZO98H2MrUXQiVl6qfp43AkLwq8DRylMmIxkj73u2S0+eilb+nArlfY0xJLH2SalxN8zxkxMDVgP0YJB3EPy58/oDnATmX3aUpT0DuudrKWe7vQ+gB26prYKdgv2dfphjo5yrHMxuNUB/rUTVMiNx7MiIMS8YZq8L6NYTyjfRUdp7TF/6GDEvkceMpmA/oo6EuS7IfQoAuc3aoYMVORTvl+10t8ukg7hhxTxHTxzBlzFHaTeoPi/32vzmDwD5m9WI9L3cjWJ/kK9jf1yBtGtfuYdq9Fclcm+qjMI5q2QIASA+DXQTEK8OJ+o/y3U/UVfR1nB8YFaiHIpyRcF5dfhQyfA842CettAumBP6NRCvSzcn5ZICQNTAYdVbUjFR9AoTnNCmxJWBzyMd17ntz78K5kDNz9qFkReYq1YUNUBMjq77UExRbT5UxLQyaARhZWaJMW680IcCvbVVjqvr4l6209sO7G7QCIi2bCeuEvxji1+o80iX3FPdLPo5Tr3uPh/VCmje8f8atwLiPlEQd+5En6rsuG58N2xkgY+f4/4g97t9ENwIaGt4/gP2CSuodDbWBAnQ8Gb7q/So3wpbfBForVnX8d2V6IJVqmOf1wChLF9bsQ/UyUjxCRrbQx2Ts+HhgPyOchMZMYfHu/HPvi1LuwlAfqY6K/KIc+lYeQAIDvAT3bCTDOfVURr/Jg0/nFlfuUoMXs3fDQ+g4QTJnBhrTHn4YlxdASAmqyxiT2dys8RKxASrIB60Jf3Y8gBhhlluvP7YtwWAXDKH3vT90xj76oArON/w/GTzsnbmPvZkaDN6LE3K1+8ZA0DUv4emRU7CaXzGD7IE/zCwr6adGQ2v7VuGMUr00c5ssCeZA5ST1Acru6qy8hqgw0E8sWJ0Q66b8INsGmftBhLzQK0+VaYGEejLwxbdfUN1HmelkVAT1RyeWaQGiNZR2q2qgWPjvmfwRAZj//NDCwDq6qoOW36QMYYEBEFVzs+h0Y2AaLQiTwspkiztGZR99T2D5LGrLrq1EguEH2TqwKpErLHW9MUWjecYfVsBjdLe98dp3Pg/i9XFYNLmIK9WyZddgdAloNFu9zjbjcuvz8DgBq2AnH0hW10xB/3h+GtSZyXaXxiwwOHWgERMHxtr4Kjq8LLk7zaAXL9qnPkmW2OAKpcGhA0adGiMy07teK2/6ISL+NKAFiVe1v7WAfoXAAD//3MufTIAAAAGSURBVAMAT9/bWPS8lBoAAAAASUVORK5CYII=;base64,iVBORw0KGgoAAAANSUhEUgAAACQAAAAkCAYAAADhAJiYAAADqUlEQVR4AexXPVQTQRCeXeAJnXTSQK6LnXRaqRWWUPCSs8LSjk4x8DyeBLCytTM2JDwbOumk0w6soLuERjrp4L2YXb/Z3Ia7y88Bd3nPwn07N7Mzk5kv+zN7J+kfa/8BJS1I4gwVy/6SW25opqRgWdgTAQkamaOgFd/5TwJxaKwLUGHDf2izYVZ8Il20YyHlN3ez/tWOw75Wl5ZHALmbfl4K+R1A7BLluhJo8cza2bfLnlIRAURaHsfj6aZyqqUZwaRJvYjbAQ6zGNfefhwBdKepJsKhGETNc+pWVys5Fa3UUzsGP4ePA55ZjwCqeM6lJlHh6FrTGfM41dacg45OqEcdOSMhAsjE1CrYN/rEjAc8Wi3KDzDfytQFSEhxxJGEEIlHXI6S8aUMWwRQsdx4RZqWKWhmHMiWYRMfWlko6Rc9P5hRq03HI4AE0RKFGsbbAOCbar3hL0PWMD8AXfUxWbgapJcigHBi7rdD6hq4PV05QfITCfmBggagHyGa5aqVZt5DzqxHAHFUgELNybngjpbKge4c1O5CHEAvdkozL8FnQcDWNvV6YkZ9kCmyzHv5xHVdgMIOtRWnToJ4Noxai1ZXYTSG/o8b76+BgNp51GciscdkANL1mluuV+OebrnhL5b96B6MOSUCqr5xTqql6QWm2G87Qz6Ni55/jxWFsl9EYmx+0bmUWR9QbpTkIeydKwq/fRvYDEsEZLwSHoJoe3RM/kIiLUnGZ+YSpSRe9fPsy4Tfei5OsE2RGhCC/rbBwlxrUay2L+WJ6urMFMt/mmoq7NORQyc4NSAEHQdFuiA1W1ud3o0oMfjiOWcMDGJXn/f8u6xMDQgJ+A0hfO8d7ZQcU6M4QS9SWkUuZcQQe55jyktqQJywpdQKcybUrgXmg2h31fnRscfeKjIBNDIiH9sENykN5jeCzOk0Mh6ZANJa/USsTHomgMJI3I3GVnh8DTm8/yg1IC5sgi9fCpqg14HUl8VKBdck3zpfB5D17cm5sMUNSHgR19kxbPw+ZY641YHn5rM69vEjjODcx5GYb/nj4tZp4Xn5dM7F3ebiCxjGXnfZUWbHPjjCqCF676KpJpEQMp7tnhdK1zTpfaLo3ca+uPA8QkMdmgUzPfWScRQEnKyWcgv8L1nWPb7f2I8JICrwMYUQL3frLLPeUiaAbDDL+fstnoht/N0HEAPfqYYCiJMHFF4+quC7L9D3ZcMFpJSLJfIs9UURMgwVUHXN2ccSrVsK5e0r/gUAAP//3w48PwAAAAZJREFUAwCeZFZYLXK9EQAAAABJRU5ErkJggg==;base64,iVBORw0KGgoAAAANSUhEUgAAACQAAAAkCAYAAADhAJiYAAAEXklEQVR4AdRXPXATRxR+u+CJ6UjpBvmq2FVMlaRLOsqkyETnyqkgHXQe5ExEsJShcjpIZVdIGRo6yqQkVUhld2eRInTQQUb2Ld93unfa+/HpDijg5p7e7vv9tD/3dq28Z8+HD2irHy2Hu5NfFg1sdzD5ibaL7Ir61iP0/5L9T4xsh4OJC4fHj4oBw8HxKITOiPRh+7yoX9RvBah7O/oSAS+CZq8zV5gcdAiKQE7EdGX+LIe3oyvz7uJWK0DG2j80pHPyTNvga6BVkL5H2hBrS6OY6SoajQGFw3+zdeOmcTDe6ayMeh3jxBxoXCNyjzLQuovjr1SO9bSv7UW8FlA4jNY2B5O7yVS4eDsN9mTcD47Ttox7l74HAEO63+v8kMl/DP5EOxkpAN1CjJfhcLLHmJCf+ZYAwekqnB1JnD10Itd8byS+7Pfr2rBd9/TL4uQ6YzJ2QsPJVSk8JUAnLv6rYMPuEXbWNSTAn2W3OX00jS/QFx5HoNxblasE6EEveKJeXCsEAVof3ez8pvI2/KAfvKJvEgNr7mQar6i/n0tlJUCqIDfnZEPe8YOYn9eFrAdk7Sd1zm+is9Z+WudXC8iJq/03dYGxOfawcP8u2hgxtaNeAtTdjbxdZfjBK8Zc2N8cPN1PdpTIBkBFeQeXfUDD3eh6XieSA7Q5iDaMsXfViAtR2005wWBkt9QeMQJtk6M//2wYu8eclCtlgL7uRxed2GyI4WjUyOdMiOkofT9oQ10BTGUMPzZzMjf9SRmgC0s2q8wvp/HHVBYpS+jk3nc/R34RlUyXOvlJU1GOJd+nVOLnTgBt4YyT6mpZPD29pQb2nB1pJW8LhjFeiCyTFykBxI+XPyo+Yt+BNcz/sLGSh8Onj5pMkx+HbT+HnzsBRIOH/eCFX6GxOxzlRXrQD57lQDmXnXcWTZPG8mMbiS8zt+oyQBSMUaGBQqu6wPGQ8iKVQMGgBZh5TBffuO+VKoTJb3sKxr3OHfIZmVJBnMlFfFBNwcx8TVYrRzvBrzPZ/Dc3QnPxrIW1kTnPJPlfgmoHRsSIq41ZCyiO43/knT/zEaoKXQvIncrjKqe3kU2np7V/sgToW5QPTXgeVx4sbJ4eo+4gysqB6pty1izEeQ5yjKl+fi6VlQCdN/YzVXp81YjdZ0Bp+SQ+qFlwm1+f0OFblasEKD3dJYf22MVfODEHdFZCgvm2VeEZvGzrHp7gu8ONkFDFKbQEyI/9+07weJzeKsQY3aJrWjJoyysOEnNaHW8olJG6/YjHjPT44sYJgN7qN1XHVtor1QJSI/LRzUs3yBPC5Q8gkpuqEcnWlsMNBXKCi8ySjSR9Rr3VMG0uZI0BMRKnkDwljkDalGMRIUn6ZDq/HKW6WtYKEKcQ0VCo8Zu8OhWdAFNCwoC5caKa/bxiOZo1m/22AsSQOMesYGr6AICFX54KTg91QLYN28pzFeOcRa0B8agy7nVunRVQ5bhW36Gt9pvy1oCaBn5Tu9cAAAD//zc1LnwAAAAGSURBVAMAQD7cWEu+qBwAAAAASUVORK5CYII=;base64,iVBORw0KGgoAAAANSUhEUgAAACQAAAAkCAYAAADhAJiYAAACdklEQVR4AexXPW8TQRCdPcmK3UFHhXMdLSUd6aCj9FGFCvgHgBPpUOSIdHSkI1VsREFKOlJS0lFeLArKpHPA0W7eu2gln53dvY9YSuHTPc/u7Myb51mf7y6SW3asBIU2pHGHeoNsMxmMDTDhOFQwtF5LULKbPYCADDBKos9ydbQVxvQBWS/N1qXGUUlQMjgZJuiGmOg3avkKrqtWlAt+Phh/QmzpMyiI20ARhIjqycxhlDpem+rOsN9VM+7C0Ii8Yi5QakujQvbMBAT5N1TYBike59roRxQxend/4yCNz4vLzllhS11RTkFIKGwJvmlKEUDny1b8E+tNzgL3LJFPUB5nhYz63fe5Y8kfQUFLrr9AvxK00JI5x6pDcw1ZmK46tNCSOUewQwi4N5ez1Cnq+fnxx2jvRXzEcAL/4CoEVDoBvKdP0Jk3s96i85Zh6ZyC0JmPNujGrZIPLk6noPZU77mS6viTnT9PbN7af+28LzoFVXissHX8NtLfbICP2ymIydi2lLYpnqXZHXC0ARHj3i6uewXd1CNHpxX9ZTFiuNV9S+uCVxCTmnYp2R2/BE/enTJcQUFNupS/eRjZh6D8LMMVFEQmPsjTVgF/N3zzsDllOcoIEl4VF6IfWvKQ7e1kj/G7ObVxCrnksHOfLSWIBF/78S/R+inHLmymWRtvK6cqin7YGKP1xiFzrSNgSwsiz3A7/j6Z6rsczwNCzL9WNIGflziMCGNH2/FxPin5UUkQOY/S+Iw3UVwxB5xfByWyz5gjxF637vNVFmTJcMW8YFEUf2N9HNN32O++tr6qtrYgWwjF9yiC4Nj669rGguoWduXdOkGXAAAA//+cdJIBAAAABklEQVQDAM/z7kngM3/hAAAAAElFTkSuQmCC;" vertex="1" parent="1">
          <mxGeometry x="369.1" y="114" width="18" height="18" as="geometry" />
        </mxCell>
        <mxCell id="x9XIAskeLC42xpHvOHnx-53" value="" style="edgeStyle=orthogonalEdgeStyle;rounded=0;orthogonalLoop=1;jettySize=auto;html=1;entryX=0;entryY=0.5;entryDx=0;entryDy=0;entryPerimeter=0;dashed=1;flowAnimation=1;strokeColor=light-dark(#000000,#000000);" edge="1" parent="1" source="x9XIAskeLC42xpHvOHnx-8" target="x9XIAskeLC42xpHvOHnx-40">
          <mxGeometry relative="1" as="geometry">
            <mxPoint x="468.1" y="145" as="sourcePoint" />
            <mxPoint x="608.1" y="145" as="targetPoint" />
          </mxGeometry>
        </mxCell>
        <mxCell id="x9XIAskeLC42xpHvOHnx-40" value="Artifact &#xa;Storage" style="shape=image;verticalLabelPosition=bottom;labelBackgroundColor=none;verticalAlign=top;aspect=fixed;imageAspect=0;image=data:image/png,iVBORw0KGgoAAAANSUhEUgAAACQAAAAkCAYAAADhAJiYAAABOUlEQVR4AeyUTW7CMBCFx7lAb9A0N2p3ya69QfeuVFWq971B2YUd3CjADbgAZgxYtmbEZIOHIMXyi/wXv8/jkSuYWJmBxi5kjtDjR6h12+/Obb2GgheNmJhDHg4fUfTHUn0RaGmbRVQpALqvCEQXa/RFoDyPNGCCBwMy/rDHiY2GLl5olSoD6r+av97WjYrQK6GcWwzoPHy/7/SBwmOVJ3PJdvCidzESIbMGiAKVIgL19vktSoUGTUQgnFevIlDndqsoLTIRCMC/JukgMaClrX96WxsNBS96TAZEF2j3pw/U/Q6f+BgOKkIvegMsQt5UT7joRUMXL7RKlQGlKYA8sfPxkm0RqKTxtb1FoNYN760bTrq2wa3HRSAD1X8UKBUGFB6rPHdKtoMXPScDogu0+zPQWMTnCI1F6AgAAP//e2jpTgAAAAZJREFUAwB4vKVYYm11AwAAAABJRU5ErkJggg==;fontColor=light-dark(#000000,#5985E1);" vertex="1" parent="1">
          <mxGeometry x="521" y="131.5" width="36" height="36" as="geometry" />
        </mxCell>
        <mxCell id="x9XIAskeLC42xpHvOHnx-54" value="" style="edgeStyle=orthogonalEdgeStyle;rounded=0;orthogonalLoop=1;jettySize=auto;html=1;entryX=1.085;entryY=0.56;entryDx=0;entryDy=0;entryPerimeter=0;dashed=1;flowAnimation=1;strokeColor=light-dark(#000000,#000000);exitX=1;exitY=0.5;exitDx=0;exitDy=0;" edge="1" parent="1" source="x9XIAskeLC42xpHvOHnx-40" target="x9XIAskeLC42xpHvOHnx-52">
          <mxGeometry relative="1" as="geometry">
            <mxPoint x="790.0344827586207" y="210.0000000000001" as="sourcePoint" />
            <mxPoint x="452.9950000000001" y="276" as="targetPoint" />
            <Array as="points">
              <mxPoint x="580" y="150" />
              <mxPoint x="580" y="231" />
            </Array>
          </mxGeometry>
        </mxCell>
        <mxCell id="x9XIAskeLC42xpHvOHnx-52" value="Trigger(s)" style="shape=image;verticalLabelPosition=bottom;labelBackgroundColor=none;verticalAlign=top;aspect=fixed;imageAspect=0;image=data:image/png,iVBORw0KGgoAAAANSUhEUgAAACQAAAAkCAYAAADhAJiYAAAB4UlEQVR4AeyWv0/CQBTH77q5yT8gdnN1043R0c32P3DU0UBijcDs5p8AxMXNUTbZHB0bmNxg00TS8/tKae7aEtI7DiUpuW/v53vvw+vdpQ77Z78KaN0LqTK0+xnyO+MpJEyVzcRFOzxRfHYnr9k11Ff2EAymGNyHNlq8dnjpcOdNcSpEA/GEMoaOAoT+AobzIVYGJoKvtHDuPKadTMPvTl7koSxQPCeEGPab9TsTxY7w8O/Dc1SrixBn8mQhkLzAuM3ZISvxsw40n7N+CR5mHegpcD8B9A0VlkhEp/KEdSAK1mvW91DnoUR0PWi5I8ylZStAFI2gvn6iGgOEcLiHPu+13Aeak6UN5LfDK7pHVsnrjG/lQNR+DtwZQfRvDgbUL5I2UJGzTYxpA0WMjeSLsywMZXCZXdlWG4g24/Li5Ix5slOTtjbQMij+5QfaRxCVGT1MZASUhcHJqZnAkK02kA0YbSDAvMM4fU2byAz8xUUrQwA4jq0Zm6GtvCb0OYk2fLKmVKUFRBEoKKTA0LiptIFMA6+y3w0gznmDblKbohhFWcpmaPGJgA9w3L5BIis1Q4wESLlMFSBsUvpuURYkRraq3ClVgCgqoGpQfHS3UOdOaQ6IoP5SFdC67FcZWpehXwAAAP//bsxwjQAAAAZJREFUAwARCWNYenaBuQAAAABJRU5ErkJggg==;fontColor=light-dark(#000000,#5985E1);" vertex="1" parent="1">
          <mxGeometry x="264.1" y="211" width="36" height="36" as="geometry" />
        </mxCell>
        <mxCell id="x9XIAskeLC42xpHvOHnx-56" value="" style="edgeStyle=orthogonalEdgeStyle;rounded=0;orthogonalLoop=1;jettySize=auto;html=1;exitX=1;exitY=0.5;exitDx=0;exitDy=0;dashed=1;flowAnimation=1;strokeColor=light-dark(#000000,#000000);" edge="1" parent="1" source="x9XIAskeLC42xpHvOHnx-18" target="x9XIAskeLC42xpHvOHnx-44">
          <mxGeometry relative="1" as="geometry">
            <mxPoint x="600" y="352" as="sourcePoint" />
            <mxPoint x="720" y="351" as="targetPoint" />
          </mxGeometry>
        </mxCell>
        <mxCell id="x9XIAskeLC42xpHvOHnx-44" value="Live" style="shape=image;verticalLabelPosition=bottom;labelBackgroundColor=none;verticalAlign=top;aspect=fixed;imageAspect=0;image=data:image/png,iVBORw0KGgoAAAANSUhEUgAAACQAAAAkCAYAAADhAJiYAAADs0lEQVR4AeyXPVQTQRCAZ+/BM3bYaeFLrtNOO+0ssaTgkbNRO+2wExIf8UGiVlhiR8WFR0MnnaV02kkXgoV00EVeeDfObG4ut3eb3OVIQeG9m5vZ3dnZ7/b27xy4Ztd/oKwPMvUe8prdntc88Zc2Oo+yGreVp4C8jc4yBcVxYgsUyysBYNVRzncdo3WyGSvLNFNAmTUmdUAcvGCrcy9P1RRQAHCIAA0RBWorTyDx8WtlxXIJwUPJ0xqdX16rm9lbKaDdunvYrpXfsygV7CLgKx1wwsdezf3JYBAET6OqCMte6+RrlLYYKSDxedHolIDeStIBBo/FnkT779wDDSaVEOe9je4HSSb1SKCLWacnzoq6n3tO0kW0AaXg7WKjc9sWxwrkNY99cUYIXu5Q90v6KvpGP7gp9WdmnT9ix7UVCEBVgS5EOG3X3G0yp3JvN9y/gMEbCVZd7zwRW3QKyGsdR4OuXS/fEUetEc6BBfJfi83Og7i3X3c/S1o5TtSW5KWAANV8WHgU6kj59fItligjw+AVewacH8lVm5eUsCotoqEVKgMoPtDQCYbTNXSeRDEM0IrNdXjVZi1S6gefxPbWf0sH6CwDaHbWea5z6dFecY9JFbrjMBzAmGGUoccSab7pxZdYixhAGL6RFBbRWTDJmArAGNgGEI2fCoy5vGYXk+Mh7j4pjK6LMAexywRSkBpk4sswbPN4sEEVguGAiTZNIIBT9rFJfFFLQhWG0Q2hMZsNIPqeB9rH8uCBaIO6Ggw1pJTRpgHUh+ALuehbb67aGj5sUDK12Ss5mzjPJsbyooZtsq8BxEcGzmS5mHHWWCclCSXleWHYn/axaIVOLi8GEDuTnJMA0I4MI64k1CgYOmacsVjCDLYThcbnYr8U0GU/uM8FLHy+Zm0TgRoFo+somKMXm4PYRbP1TJL+aiW1G6SA9houz7Swl5xN21iSgAwldh4dvmAIiPu2OikgdqLZFO3y8YMalxWVZ7zrK2dT6vu1yoLYcW0F2qZzC9LBTBypm1HsIprPPUi7vtQd95mtQFyRD2a0LvEfByeBoTiwTkz4oHPPt6iKGo7RKC9mjARin51a+TV1TYNtFg5MYD3b1sHlWaJAbSE6S9Vmd43FFmcsEDfAv0NgvlWJtw4C47/bHvvkFaRfKgXQEKHGU7/blAeZl7/qHunvrpyPCeeRm3HCL3cyF5BE81fvrgzAeBzgvuSP0uw7VmLna4kxEZBUGvRYZYEbk7xp6UJA02rcFufaAf0DAAD//2E8jYMAAAAGSURBVAMA3xyDWKh3ivsAAAAASUVORK5CYII=;fontColor=light-dark(#000000,#5985E1);" vertex="1" parent="1">
          <mxGeometry x="521" y="349" width="36" height="36" as="geometry" />
        </mxCell>
        <mxCell id="x9XIAskeLC42xpHvOHnx-57" value="Pull &#xa;Artifact" style="shape=image;verticalLabelPosition=bottom;labelBackgroundColor=none;verticalAlign=top;aspect=fixed;imageAspect=0;image=data:image/png,iVBORw0KGgoAAAANSUhEUgAAACQAAAAkCAYAAADhAJiYAAAC+0lEQVR4AeyWP3PTMBTAn0QD7VY+AE290Q22jrDRrQwcMVP7DcoEF18O39Hk2AoTbHTCuetAN8JEt46ErZtJJrZka7hQifdky0hplNgN/+4anZ/fk/Se9LP8LIvDf1bmQNNeyHyFLtcKPajHt1ziWgl/t9Pz6x1JMs5nag5V6vEWBp+SHh1gAfhnl4z65q07gR7uxusIIhnwtwCwiPJXrrFAfqP7iTN+bBEI+ArTyyAKyoxkuut4j3NAlXr3GKS8o91/gLhNEzRr3pFum6AXfcyPCf1Tuywg/3l8j4FcT6P6BHIQeO207lQSxDYweAlpQaheahZWFhBw/kGPgDDXtZ1HR9XyYwB2CElZxofbTMxi9wwI82ZPh54ORU4Yiasn20wsfKPYKFi5T1oJ5++VLnjLgDBvdtLY/mHo9VN7ooqCVcwvlNqNlnaUQtzV9mYYL2s7r/4FlEYwYJXUvJAyk3+xxLNVzzuYAvIb8U0d8C5Y+ajtWTUDKPxwCojJK+VZJx+J13tW4Q1VAY0MNntVQuHcgbQooOHw7Etah60wLvxUOjbTDDSQXinIWxTQQeipz5aCvi/wZ6R/h2AOvSk6jgKyghg8teoFK4/qnSc65OpQvNJ2Xp0BmfuHedTA34A6u5htkwaXAC90/37oDbSdV2dA5v7B8MhxkU0N4bN/mBwKD4ziNzpj9yQ8sOkNWXlnQFS7NhRLpEmWSrxXCeNVsvMIwsTolyQzY0fN0MsSGvskSNjx613rd6JgGOypfgymywKiJTZfHStxmoT8nKIPcuig4ftRdSX7fWC7cclNPBUk0NSKMKRMsYDokx+cQZvOQKaTy6YnGznInURB+dyPGdvwg3ONAmD2W0CDEn9Nr4rOye5wR48QGzjwmqPXmtT0wRgL1gIyHQ3bbTLWAibWaNCo5rXcjkkP+SVWch+tU6sF1AzK2+Q0TpqBt08BpmCubERV78Rsm2bT2OSjNdmmWEBmx5+0XTA05z8BooldMgdyrYxun6+QXgmX/gkAAP//5Fit5QAAAAZJREFUAwBDfgBYBBwAIQAAAABJRU5ErkJggg==;fontColor=light-dark(#000000,#5985E1);flipH=0;" vertex="1" parent="1">
          <mxGeometry x="130" y="333.5" width="36" height="36" as="geometry" />
        </mxCell>
        <mxCell id="x9XIAskeLC42xpHvOHnx-58" value="" style="shape=image;verticalLabelPosition=bottom;labelBackgroundColor=default;verticalAlign=top;aspect=fixed;imageAspect=0;image=data:image/png,iVBORw0KGgoAAAANSUhEUgAAACQAAAAkCAYAAADhAJiYAAABJUlEQVR4AeyXPw6CMBTGX4kMbrq5EW/CEVxM0MlbOBAjDk28haMcQ09CmBzlBNT3CqkUSToVatIXvtB/4fvx0aEE4Fh5INMHcT+hTVYsEl6ebWvPy+M2K1b9xLSEEl4c5mHwZgCZbQmA6ywMXuQJndKAGAQ3GLlYz1MDgraQPrunEbMp8mjttNsgkLZi5I4HMgXuE/IJmRIwzfs95BMyJWCa93vIJ2RKwDT/H3uIMRbbPlOTx1Ba/YQquUiI2PaZGtBDegE0ntCUBoRH1iUOawuwb/OqWk/loQHRKC1AWT1Pd55PAZCt0g+Qmvk2Rm1JINrAO16KKUUM9OYSiBquqAGq66fAv9UpBchAoUig/LR+5Gl0mVTIoICo4YpkQq7AEIdzQB8AAAD//4sMjk4AAAAGSURBVAMAq7mzWEzfFEgAAAAASUVORK5CYII=;" vertex="1" parent="1">
          <mxGeometry x="58" y="160" width="18" height="18" as="geometry" />
        </mxCell>
        <mxCell id="x9XIAskeLC42xpHvOHnx-59" value="" style="shape=image;verticalLabelPosition=bottom;labelBackgroundColor=default;verticalAlign=top;aspect=fixed;imageAspect=0;image=data:image/png,iVBORw0KGgoAAAANSUhEUgAAACQAAAAkCAYAAADhAJiYAAACkUlEQVR4AexWMWzUMBT9P0JC3egGS6/ZYCsbbDcylgERd4IJGJlATSVOAh+MbMDUbglioBsjY9nKRrdcboGxG5VaYv5PztE1nOPYvUpIPSs//v7ffv/F/rYTwH9WFoRsC7KYoYs3Q/dktrYh82csYphdt82Aze+dQ+Jlti5kri5BsK8A3rCACn6wjXx3bIFNfi9C92UWQRB8NoGS70skswdGf4vDi1AAQaIxT6C4mcQ9ZGFd2xGCbfAozoQimb/QcX4fF8uf4vC7brN++bhY0m3OK613rZ0JIUC9FLuD8BAaZWcQHmkT5dVjrXetnQmBgivQtbj0nWA6E1IB1ks0wTBWClTnvhrEmRDCnyd6sBiOv2pd15Ec72kdTtTDWu+oOBNKNsMDwq7yRKm+oLOIEn1byHHCOoK6RX5+DtNBOGLFRZwJMThtcd5JFSkyYJnoKiJVP0fUZ1k3XGovQhyAAi4BAu+imhjb2Vb6yob7y5sQh0o2ex84OEl5MJY12djnK2ci5Bu0bZwXIT6BIzna4yQ2yL4Y5o/aApt8nQltyPE7HVzR7Y6AejfNwl6jA/S97k/kXs/qNMtmJRS9yn8yMB1ynMBNDDoCcJcS+W0pgCkR+dXsRLbnjEGS/eNrGFoJEYBChKtTY0aFKm6XyVvd8DeSeOUuJffTUuIVkWz1riWVD7kvjZ0+i1YZk2zGx0hIyNHU/45KJ0HCj1vhNyNaw8F9aVxIgrTMO9p9Gltbq9pICADXoSoHSbwqKtX/ncY9vkZoiRmjxubGKWkhVPWjL0sr7ezvLlhWQojYj+inbB7CWLbPshICpfoIMJiHAF3GYCl2QhaAebuNhHhnnKeYPsRIyDTgvO0LQrYZXsyQbYb+AgAA///+fAiKAAAABklEQVQDAD6yPFh2D267AAAAAElFTkSuQmCC;" vertex="1" parent="1">
          <mxGeometry x="40" y="132" width="36" height="36" as="geometry" />
        </mxCell>
      </root>
    </mxGraphModel>
  </diagram>
</mxfile>
